<svg preserveAspectRatio="xMinYMin meet" viewBox="0 0 32 32" fill="currentColor" xmlns="http://www.w3.org/2000/svg">
<path d="M26.4657 28H5.53558C4.9171 27.9993 4.30961 27.8334 3.77361 27.5188C3.23762 27.2043 2.79183 26.7521 2.48066 26.2074C2.16948 25.6626 2.00378 25.0442 2.00006 24.4139C1.99634 23.7835 2.15473 23.1632 2.45946 22.6146L12.9236 3.82127C13.2298 3.2651 13.6766 2.80278 14.2176 2.48247C14.7587 2.16216 15.3741 1.99558 15.9997 2.00009C16.6259 1.99544 17.2418 2.16213 17.7832 2.48279C18.3246 2.80345 18.7716 3.26631 19.0777 3.82309L29.5418 22.6146C29.846 23.1633 30.0039 23.7835 29.9999 24.4136C29.9959 25.0438 29.8302 25.6619 29.5191 26.2065C29.208 26.7511 28.7625 27.2032 28.2268 27.5178C27.6911 27.8325 27.084 27.9987 26.4657 28ZM15.9997 3.36325C15.6106 3.36031 15.2278 3.46382 14.8912 3.66298C14.5547 3.86214 14.2767 4.14966 14.0863 4.49558L3.62214 23.2871C3.43278 23.6284 3.33441 24.0142 3.33681 24.4062C3.33921 24.7982 3.44231 25.1828 3.63583 25.5216C3.82936 25.8604 4.10657 26.1416 4.43987 26.3373C4.77317 26.5329 5.15094 26.6362 5.53558 26.6368H26.4675C26.8521 26.6362 27.2299 26.5329 27.5632 26.3373C27.8965 26.1416 28.1737 25.8604 28.3672 25.5216C28.5607 25.1828 28.6638 24.7982 28.6662 24.4062C28.6686 24.0142 28.5703 23.6284 28.3809 23.2871L17.915 4.49376C17.7242 4.14791 17.4458 3.86058 17.1089 3.66173C16.7721 3.46289 16.389 3.35981 15.9997 3.36325Z" fill="currentColor" stroke="currentColor" stroke-width="0.5"/>
<path d="M17 10H15V18.8378H17V10ZM17 20.6971H15V23H17V20.6971Z" fill="currentColor" stroke="currentColor" stroke-width="0.5"/>
</svg>
