<svg preserveAspectRatio="xMinYMin meet" viewBox="0 0 32 32" fill="none" xmlns="http://www.w3.org/2000/svg">
<path d="M16.776 0.76123H15.264V25.0127H16.776V0.76123Z" fill="currentColor" stroke="currentColor" stroke-width="0.5"/>
<path d="M16 25.8765C15.8 25.8765 15.61 25.7851 15.468 25.6251L10.326 19.7965L11.392 18.5691L16 23.7965L20.608 18.5691L21.674 19.7965L16.534 25.6251C16.4638 25.7051 16.3805 25.7684 16.2889 25.8116C16.1973 25.8547 16.0991 25.8768 16 25.8765Z" fill="currentColor" stroke="currentColor" stroke-width="0.5"/>
<path d="M29.244 31.2366H2.756C2.65657 31.2372 2.55802 31.2152 2.46606 31.172C2.3741 31.1288 2.29055 31.0652 2.22024 30.9848C2.14993 30.9045 2.09427 30.809 2.05646 30.7039C2.01866 30.5988 1.99947 30.4862 2 30.3726V21.8171C2 21.588 2.07965 21.3682 2.22142 21.2062C2.3632 21.0442 2.55549 20.9531 2.756 20.9531H6.832V22.6811H3.512V29.5086H28.488V22.6811H25.168V20.9531H29.244C29.4445 20.9531 29.6368 21.0442 29.7786 21.2062C29.9203 21.3682 30 21.588 30 21.8171V30.3726C29.9998 30.5435 29.9555 30.7106 29.8726 30.8529C29.7897 30.9952 29.6719 31.1064 29.534 31.1726C29.442 31.2156 29.3434 31.2373 29.244 31.2366Z" fill="currentColor" stroke="currentColor" stroke-width="0.5"/>
</svg>
