<svg preserveAspectRatio="xMinYMin meet" viewBox="0 0 32 32" fill="none" xmlns="http://www.w3.org/2000/svg">
<path d="M16 26.4284C13.9374 26.4284 11.9212 25.8168 10.2063 24.6709C8.49132 23.525 7.15468 21.8963 6.36537 19.9908C5.57607 18.0852 5.36955 15.9884 5.77193 13.9655C6.17432 11.9426 7.16753 10.0844 8.62597 8.62596C10.0844 7.16751 11.9426 6.1743 13.9655 5.77192C15.9884 5.36953 18.0852 5.57605 19.9908 6.36536C21.8963 7.15466 23.525 8.4913 24.6709 10.2062C25.8168 11.9212 26.4284 13.9374 26.4284 16C26.4256 18.7649 25.326 21.4158 23.3709 23.3709C21.4158 25.326 18.7649 26.4256 16 26.4284ZM16 6.57065C14.7618 6.57065 13.5358 6.81452 12.3919 7.28835C11.248 7.76217 10.2086 8.45666 9.33308 9.33218C8.45757 10.2077 7.76307 11.2471 7.28925 12.391C6.81543 13.5349 6.57155 14.7609 6.57155 15.9991C6.57155 17.2373 6.81543 18.4633 7.28925 19.6072C7.76307 20.7511 8.45757 21.7905 9.33308 22.666C10.2086 23.5415 11.248 24.236 12.3919 24.7098C13.5358 25.1837 14.7618 25.4275 16 25.4275C18.5003 25.4275 20.8983 24.4343 22.6663 22.6663C24.4343 20.8983 25.4276 18.5003 25.4276 16C25.4276 13.4996 24.4343 11.1017 22.6663 9.33369C20.8983 7.56568 18.5003 6.57065 16 6.57065Z" fill="currentColor" stroke="currentColor" stroke-width="0.5"/>
<path d="M16.032 9.14307C16.562 9.14307 17.0702 9.35359 17.445 9.72833C17.8197 10.1031 18.0302 10.6113 18.0302 11.1413C18.0302 11.6713 17.8197 12.1795 17.445 12.5542C17.0702 12.929 16.562 13.1395 16.032 13.1395C15.502 13.1395 14.9938 12.929 14.619 12.5542C14.2443 12.1795 14.0338 11.6713 14.0338 11.1413C14.0338 10.6113 14.2443 10.1031 14.619 9.72833C14.9938 9.35359 15.502 9.14307 16.032 9.14307Z" fill="currentColor" stroke="currentColor" stroke-width="0.5"/>
<path d="M18.8658 22.0177H13.968C13.0649 22.0177 13.0987 20.4532 13.968 20.4532H14.9333V16.311H13.9662C13.0702 16.311 13.0898 14.7466 13.9662 14.7466H17.8702C17.934 14.7471 17.9951 14.7727 18.04 14.818C18.085 14.8633 18.1102 14.9245 18.1102 14.9884V20.4515H18.864C19.7315 20.4515 19.7635 22.0177 18.864 22.0177H18.8658Z" fill="currentColor" stroke="currentColor" stroke-width="0.5"/>
</svg>
