<svg preserveAspectRatio="xMinYMin meet" viewBox="0 0 32 32" fill="none" xmlns="http://www.w3.org/2000/svg">
<g clip-path="url(#clip0_29_405)">
<path d="M15.8181 31.6983C12.8618 31.6973 9.97221 30.8198 7.51459 29.1766C5.05696 27.5334 3.14169 25.1984 2.01091 22.4667C0.880125 19.7351 0.584608 16.7295 1.16172 13.8299C1.73883 10.9303 3.16265 8.26693 5.25318 6.1765C7.3437 4.08608 10.0071 2.66247 12.9065 2.08565C15.806 1.50883 18.8114 1.8047 21.5427 2.93586C24.2741 4.06703 26.6087 5.98268 28.2516 8.44064C29.8944 10.8986 30.7715 13.7885 30.7722 16.745C30.7682 20.7099 29.1913 24.5113 26.3877 27.3148C23.5841 30.1182 19.7828 31.6948 15.8181 31.6983ZM15.8181 3.23507C13.146 3.23573 10.5341 4.02878 8.31269 5.51394C6.09126 6.99909 4.36008 9.10964 3.33805 11.5787C2.31602 14.0478 2.04905 16.7645 2.57088 19.3853C3.09271 22.0061 4.37991 24.4134 6.26973 26.3026C8.15954 28.1918 10.5671 29.4782 13.1879 29.9991C15.8088 30.52 18.5252 30.252 20.9938 29.2289C23.4623 28.2059 25.5721 26.4738 27.0563 24.2517C28.5405 22.0296 29.3325 19.4172 29.3322 16.745C29.3278 13.1626 27.9023 9.72828 25.3687 7.19577C22.8351 4.66325 19.4003 3.23943 15.8181 3.23675V3.23507Z" fill="currentColor" stroke="currentColor" stroke-width="0.5"/>
<path d="M24.0725 16.3152H7.57056V17.6832H24.0725V16.3152Z" fill="currentColor" stroke="currentColor" stroke-width="0.5"/>
</g>
<defs>
<clipPath id="clip0_29_405">
<rect width="32" height="32" fill="white"/>
</clipPath>
</defs>
</svg>
