<svg preserveAspectRatio="xMinYMin meet" viewBox="0 0 32 32" fill="none" xmlns="http://www.w3.org/2000/svg">
<path fill-rule="evenodd" clip-rule="evenodd" d="M20.896 10.8908H11.1075V4.93344H18.8053L20.896 7.53611V10.8908ZM10.4427 12.2668H21.5591C21.648 12.2652 21.7357 12.246 21.8171 12.2105C21.8986 12.1749 21.9722 12.1236 22.0338 12.0595C22.0954 11.9954 22.1438 11.9198 22.1761 11.837C22.2084 11.7542 22.2241 11.6659 22.2222 11.577V7.53789C22.2222 7.48438 22.2186 7.43092 22.2115 7.37789H25.7315C26.4871 7.37789 27.1004 8.00011 27.1004 8.76455V15.7743C27.1004 16.5388 26.4871 17.1592 25.7315 17.1592H6.26843C6.08743 17.1583 5.90839 17.1217 5.74157 17.0514C5.57475 16.9812 5.42342 16.8787 5.29626 16.7499C5.1691 16.6211 5.06861 16.4685 5.00053 16.3008C4.93246 16.133 4.89814 15.9536 4.89954 15.7726V8.76455C4.89954 8.00011 5.51288 7.37789 6.26843 7.37789H9.77776V11.5788C9.77588 11.6678 9.79161 11.7563 9.82405 11.8392C9.85649 11.9221 9.90499 11.9978 9.96678 12.0619C10.0286 12.126 10.1024 12.1773 10.1841 12.2127C10.2658 12.2482 10.3536 12.2654 10.4427 12.2668ZM9.77776 6.04455V4.78233C9.77776 4.10678 10.3075 3.55566 10.96 3.55566H18.88C19.1893 3.55566 19.4844 3.68011 19.7049 3.90766L21.6427 6.36633V6.04455H25.7315C26.4517 6.04644 27.1417 6.33384 27.6503 6.84373C28.1588 7.35363 28.4444 8.04439 28.4444 8.76455V15.7726C28.4444 17.2712 27.2267 18.489 25.7315 18.489H6.26843C5.54875 18.4876 4.85899 18.2008 4.35043 17.6916C3.84187 17.1824 3.55601 16.4922 3.55554 15.7726V8.76277C3.55601 8.04292 3.84181 7.35261 4.35032 6.8431C4.85883 6.33359 5.54858 6.04643 6.26843 6.04455H9.77776ZM12.2667 23.3477H19.7333V22.3414H12.2667V23.3477ZM12.2667 24.5921H19.7333V23.5859H12.2667V24.5921ZM21.072 28.4446H10.9298C10.6223 28.4417 10.3285 28.3173 10.1126 28.0984C9.89675 27.8795 9.77634 27.584 9.77776 27.2766V22.2223H11.1058V27.129H20.896V22.2223H22.2222V27.2766C22.2222 27.9201 21.7067 28.4446 21.072 28.4446Z" fill="currentColor"/>
<path d="M11.1076 10.8906H10.6631V11.3351H11.1076V10.8906ZM20.896 10.8906V11.3351H21.3404V10.8906H20.896ZM11.1076 4.93331V4.48886H10.6631V4.93331H11.1076ZM18.8053 4.93331L19.1538 4.6542L19.0204 4.48886H18.8071V4.93331H18.8053ZM20.896 7.53597H21.3404V7.37953L21.2427 7.25864L20.896 7.53597ZM22.2116 7.37597V6.93331H21.7084L21.7707 7.43286L22.2116 7.37953V7.37597ZM9.77778 7.37597H10.2222V6.93331H9.77778V7.37597ZM9.77778 6.04442V6.48886H10.2222V6.04442H9.77778ZM19.7049 3.90753L20.0533 3.63197L20.0391 3.6142L20.0213 3.59642L19.7049 3.90753ZM21.6427 6.3662L21.2942 6.63997L22.0871 7.64797V6.36442H21.6427V6.3662ZM21.6427 6.04442V5.59997H21.1982V6.04442H21.6427ZM19.7333 23.3475V23.792H20.1778V23.3475H19.7333ZM12.2667 23.3475H11.8222V23.792H12.2667V23.3475ZM19.7333 22.3413H20.1778V21.8969H19.7333V22.3413ZM12.2667 22.3413V21.8969H11.8222V22.3413H12.2667ZM19.7333 24.592V25.0364H20.1778V24.592H19.7333ZM12.2667 24.592H11.8222V25.0364H12.2667V24.592ZM19.7333 23.5858H20.1778V23.1413H19.7333V23.5858ZM12.2667 23.5858V23.1413H11.8222V23.5858H12.2667ZM9.77778 22.2222V21.7778H9.33334V22.2222H9.77778ZM11.1058 22.2222H11.5502V21.7778H11.1058V22.2222ZM11.1058 27.1289H10.6613V27.5733H11.1058V27.1289ZM20.896 27.1289V27.5733H21.3404V27.1289H20.896ZM20.896 22.2222V21.7778H20.4516V22.2222H20.896ZM22.2222 22.2222H22.6667V21.7778H22.2222V22.2222ZM11.1076 11.3351H20.896V10.4462H11.1076V11.3351ZM10.6631 4.93331V10.8906L11.552 10.8889V4.93331H10.6631ZM18.8053 4.48886H11.1076V5.37775H18.8053V4.48886ZM21.2427 7.25864L19.1538 4.6542L18.4604 5.21064L20.5493 7.81508L21.2427 7.25864ZM21.3404 10.8906V7.53597H20.4516V10.8906H21.3404ZM21.5591 11.8222H10.4427V12.7111H21.5591V11.8222ZM21.7778 11.5769C21.7778 11.7298 21.664 11.8222 21.5591 11.8222V12.7111C21.7063 12.7095 21.8518 12.6788 21.9872 12.6209C22.1226 12.563 22.2452 12.479 22.3481 12.3736C22.451 12.2683 22.532 12.1437 22.5867 12.007C22.6414 11.8703 22.6685 11.7241 22.6667 11.5769H21.7778ZM21.7778 7.53597V11.5769H22.6667V7.53775L21.7778 7.53597ZM21.7707 7.43108C21.776 7.46664 21.7778 7.50219 21.7778 7.53597L22.6667 7.53775C22.6663 7.46641 22.6616 7.39339 22.6524 7.32264L21.7707 7.43108ZM25.7316 6.93331H22.2116V7.8222H25.7316V6.93331ZM27.5449 8.76442C27.5449 7.75642 26.7378 6.93331 25.7316 6.93331V7.8222C26.2364 7.8222 26.656 8.23819 26.656 8.76442H27.5449ZM27.5449 15.7724V8.76442H26.656V15.7724H27.5449ZM25.7316 17.6C26.7378 17.6 27.5449 16.7751 27.5449 15.7689H26.656C26.6572 15.8914 26.6342 16.013 26.5884 16.1267C26.5425 16.2404 26.4748 16.3439 26.3889 16.4314C26.3031 16.5189 26.2009 16.5887 26.0881 16.6366C25.9753 16.6846 25.8541 16.7099 25.7316 16.7111V17.6ZM6.26845 17.6H25.7316V16.7111H6.26845V17.6ZM4.45511 15.7689C4.45511 16.7733 5.26223 17.6 6.26845 17.6V16.7111C6.14581 16.7102 6.02456 16.685 5.91167 16.6371C5.79877 16.5892 5.69644 16.5195 5.61055 16.432C5.52466 16.3444 5.4569 16.2408 5.41116 16.127C5.36542 16.0132 5.3426 15.8915 5.344 15.7689H4.45511ZM4.45511 8.76086V15.7706H5.344V8.76264L4.45511 8.76086ZM6.26845 6.92975C5.26223 6.92975 4.45511 7.75642 4.45511 8.76086L5.344 8.76264C5.344 8.23642 5.76356 7.81864 6.26845 7.81864V6.92975ZM9.77778 6.92975H6.26845V7.81864H9.77778V6.92975ZM10.2222 11.5751V7.37597L9.33334 7.37775V11.5786H10.2222V11.5751ZM10.4427 11.8222C10.336 11.8222 10.2222 11.7262 10.2222 11.5751H9.33334C9.33334 12.1866 9.81334 12.7111 10.4427 12.7111V11.8222ZM10.2222 6.04442V4.7822H9.33334V6.04442H10.2222ZM10.2222 4.7822C10.2222 4.33597 10.5689 3.99997 10.96 3.99997V3.11108C10.048 3.11108 9.33334 3.87553 9.33334 4.7822H10.2222ZM10.96 3.99997H18.88V3.11108H10.96V3.99997ZM18.88 3.99997C19.0667 3.99997 19.2462 4.07464 19.3884 4.21864L20.0213 3.59642C19.8729 3.44326 19.697 3.3214 19.5007 3.23804C19.3043 3.15468 19.0933 3.11151 18.88 3.11108V3.99997ZM19.3564 4.18308L21.2942 6.63997L21.9929 6.08886L20.0551 3.63197L19.3564 4.18308ZM22.0871 6.3662V6.04442H21.1982V6.36442H22.0871V6.3662ZM21.6427 6.48886H25.7316V5.59997H21.6427V6.48886ZM25.7316 6.48886C26.3338 6.49074 26.9108 6.73132 27.336 7.15787C27.7612 7.58441 28 8.16213 28 8.76442H28.8889C28.8889 7.92638 28.5565 7.12257 27.9646 6.52933C27.3727 5.93608 26.5696 5.60186 25.7316 5.59997V6.48886ZM28 8.76442V15.7724H28.8889V8.76442H28ZM28 15.7724C28 17.0258 26.9813 18.0444 25.7316 18.0444V18.9333C27.4738 18.9333 28.8889 17.5146 28.8889 15.7724H28ZM25.7316 18.0444H6.26845V18.9333H25.7316V18.0444ZM6.26845 18.0444C5.66664 18.043 5.08993 17.8031 4.66472 17.3772C4.23951 16.9513 4.00047 16.3742 4 15.7724H3.11111C3.11111 17.5146 4.52623 18.9333 6.26845 18.9333V18.0444ZM4 15.7724V8.76264H3.11111V15.7724H4ZM4 8.76264C4.00047 8.16066 4.23945 7.5834 4.66461 7.15724C5.08977 6.73107 5.66647 6.49074 6.26845 6.48886V5.59997C5.43042 5.60186 4.62735 5.93608 4.03544 6.52933C3.44353 7.12257 3.11111 7.92461 3.11111 8.76264H4ZM6.26845 6.48886H9.77778V5.59997H6.26845V6.48886ZM19.7333 22.9031H12.2667V23.792H19.7333V22.9031ZM19.2889 22.3413V23.3475H20.1778V22.3413H19.2889ZM12.2667 22.7858H19.7333V21.8969H12.2667V22.7858ZM12.7111 23.3475V22.3413H11.8222V23.3475H12.7111ZM19.7333 24.1475H12.2667V25.0364H19.7333V24.1475ZM19.2889 23.5858V24.592H20.1778V23.5858H19.2889ZM12.2667 24.0302H19.7333V23.1413H12.2667V24.0302ZM12.7111 24.592V23.5858H11.8222V24.592H12.7111ZM10.9298 28.8889H21.072V28H10.9298V28.8889ZM9.33334 27.2764C9.33334 28.16 10.0444 28.8889 10.9298 28.8889V28C10.7402 27.9972 10.5595 27.9195 10.4269 27.784C10.2944 27.6484 10.2208 27.466 10.2222 27.2764H9.33334ZM9.33334 22.2222V27.2764H10.2222V22.2222H9.33334ZM11.1058 21.7778H9.77778V22.6666H11.1058V21.7778ZM11.5502 27.1289V22.2222H10.6613V27.1289H11.5502ZM20.896 26.6844H11.1058V27.5733H20.896V26.6844ZM20.4516 22.2222V27.1289H21.3404V22.2222H20.4516ZM22.2222 21.7778H20.896V22.6666H22.2222V21.7778ZM22.6667 27.2764V22.2222H21.7778V27.2764H22.6667ZM21.072 28.8889C21.9573 28.8889 22.6667 28.16 22.6667 27.2764H21.7778C21.7792 27.4657 21.7059 27.6479 21.5737 27.7834C21.4416 27.9189 21.2612 27.9967 21.072 28V28.8889Z" fill="currentColor"/>
</svg>
