<svg preserveAspectRatio="xMinYMin meet" viewBox="0 0 32 32" fill="none" xmlns="http://www.w3.org/2000/svg">
<path fill-rule="evenodd" clip-rule="evenodd" d="M16.8445 14.6315V1.88232H15.3067V14.6371L12.7467 11.9096L11.6569 13.0654L15.5289 17.184C15.6736 17.3351 15.8687 17.4199 16.072 17.4199C16.2753 17.4199 16.4704 17.3351 16.6151 17.184L20.4889 13.0654L19.4009 11.9096L16.8409 14.6315H16.8445ZM27.5502 22.9929H4.44267C3.73195 22.9874 3.05228 22.6838 2.55272 22.1485C2.05315 21.6131 1.77447 20.8899 1.77778 20.1374V6.31715C1.77778 4.71715 2.95112 3.46915 4.44267 3.46915H12.9298V5.10115H4.44445C4.29439 5.10087 4.14579 5.13228 4.00733 5.19353C3.86887 5.25477 3.74333 5.34464 3.63806 5.45786C3.53278 5.57108 3.44988 5.70539 3.3942 5.85293C3.33852 6.00047 3.31119 6.15829 3.31378 6.31715V20.1374C3.31378 20.8226 3.81156 21.359 4.44445 21.359H27.552C27.7031 21.3598 27.8527 21.3286 27.9922 21.2671C28.1316 21.2056 28.258 21.1152 28.3639 21.0011C28.4698 20.8871 28.553 20.7517 28.6087 20.6031C28.6644 20.4544 28.6913 20.2954 28.688 20.1355V6.31903C28.6904 6.1596 28.6626 6.00128 28.6064 5.85335C28.5502 5.70543 28.4667 5.57088 28.3607 5.45761C28.2547 5.34434 28.1284 5.25462 27.9893 5.19374C27.8501 5.13285 27.7008 5.10201 27.5502 5.10303H19.1431V3.47103H27.552C29.0507 3.47103 30.224 4.72091 30.224 6.31903V20.1393C30.224 21.7148 29.0258 22.9948 27.552 22.9948L27.5502 22.9929ZM11.6853 30.4941H20.3165C21.0489 30.4941 21.6462 29.9068 21.6249 29.0033L21.0613 26.4451L19.568 26.8197L20.0356 28.8583H11.984L12.4302 26.8179L10.9369 26.447L10.3573 29.1877C10.3573 29.9068 10.9529 30.4941 11.6853 30.4941Z" fill="currentColor"/>
<path d="M16.8445 1.88245H17.2889V1.41187H16.8445V1.88245ZM16.8445 14.6316H16.4V15.7723L17.1591 14.9629L16.8445 14.6316ZM15.3067 1.88245V1.41187H14.8622V1.88245H15.3067ZM15.3067 14.6373L14.992 14.9686L15.7511 15.778V14.6373H15.3067ZM12.7467 11.9097L13.0596 11.5785L12.7449 11.2434L12.4302 11.5766L12.7467 11.9097ZM11.6569 13.0655L11.3422 12.7323L11.0293 13.0655L11.3422 13.3968L11.6569 13.0655ZM15.5289 17.1841L15.2142 17.5154L15.216 17.5173L15.5289 17.1841ZM16.6151 17.1841L16.928 17.5173H16.9316L16.6151 17.1841ZM20.4889 13.0655L20.8036 13.3968L21.1165 13.0655L20.8036 12.7323L20.4889 13.0655ZM19.4009 11.9097L19.7156 11.5766L19.3991 11.2434L19.0845 11.5785L19.4009 11.9097ZM12.9298 3.46928H13.3742V2.99869H12.9298V3.46928ZM12.9298 5.10128V5.57187H13.3742V5.10128H12.9298ZM19.1413 5.10128H18.6969V5.57187H19.1413V5.10128ZM19.1413 3.46928V2.99869H18.6969V3.46928H19.1413ZM21.6231 29.0034L22.0676 28.9921V28.9432L22.0569 28.8961L21.6231 29.0034ZM21.0596 26.4453L21.4916 26.338L21.3902 25.8787L20.9565 25.9879L21.0596 26.4453ZM19.5662 26.8199L19.4649 26.3606L19.0293 26.4697L19.136 26.9309L19.5662 26.818V26.8199ZM20.0338 28.8585V29.329H20.5991L20.4658 28.7493L20.0338 28.8585ZM11.9822 28.8585L11.5502 28.753L11.424 29.329H11.9822V28.8585ZM12.4285 26.818L12.8622 26.9234L12.9618 26.466L12.5298 26.3587L12.4285 26.818ZM10.9351 26.4472L11.0382 25.9897L10.6009 25.8806L10.5031 26.3436L10.9351 26.4472ZM10.3556 29.1879L9.92178 29.0862L9.91112 29.137V29.1879H10.3556ZM16.4 1.88245V14.6316H17.2889V1.88245H16.4ZM15.3085 2.35304H16.8445V1.41187H15.3067V2.35304H15.3085ZM15.7529 14.6373V1.88245H14.864V14.6373H15.7529ZM12.432 12.241L14.9938 14.9686L15.6249 14.3041L13.0596 11.5785L12.432 12.241ZM11.9733 13.3968L13.0613 12.2429L12.4302 11.5766L11.3422 12.7323L11.9733 13.3968ZM15.8453 16.8509L11.9733 12.7323L11.3422 13.3968L15.216 17.5173L15.8453 16.8509ZM16.0747 16.9507C15.988 16.9504 15.9049 16.9138 15.8436 16.849L15.2178 17.5173C15.4542 17.7639 15.7636 17.8937 16.0747 17.8937V16.9507ZM16.3058 16.849C16.2444 16.9138 16.1614 16.9504 16.0747 16.9507V17.8937C16.384 17.8937 16.6951 17.7639 16.928 17.5173L16.304 16.849H16.3058ZM20.1742 12.7323L16.3022 16.8509L16.9333 17.5154L20.8053 13.3968L20.176 12.7323H20.1742ZM19.0862 12.2429L20.176 13.3968L20.8053 12.7323L19.7156 11.5766L19.088 12.2429H19.0862ZM17.1591 14.9629L19.7173 12.241L19.0862 11.5785L16.528 14.3003L17.1591 14.9629ZM4.44267 23.4636H27.5502V22.5225H4.44267V23.4636ZM1.33334 20.1375C1.33003 21.0149 1.65554 21.8578 2.23845 22.4813C2.82136 23.1049 3.61407 23.4582 4.44267 23.4636V22.5225C3.84982 22.517 3.2832 22.2629 2.86698 21.8158C2.45077 21.3688 2.21891 20.7653 2.22223 20.1375H1.33334ZM1.33334 6.31728V20.1375H2.22223V6.31728H1.33334ZM4.44267 2.99869C4.03164 2.9964 3.6243 3.08087 3.24446 3.24716C2.86461 3.41346 2.51987 3.65824 2.23038 3.96721C1.9409 4.27617 1.71247 4.64313 1.55845 5.04663C1.40443 5.45014 1.3279 5.8821 1.33334 6.31728H2.22223C2.22223 4.97516 3.20001 3.93987 4.44267 3.93987V2.99869ZM12.9298 2.99869H4.44267V3.93987H12.9316V2.99869H12.9298ZM13.3742 5.10128V3.46928H12.4853V5.10128H13.3742ZM4.44445 5.57187H12.9316V4.63069H4.44445V5.57187ZM3.75823 6.31728C3.75823 5.8881 4.06401 5.57187 4.44445 5.57187V4.63069C3.55912 4.63069 2.86934 5.38363 2.86934 6.31728H3.75823ZM3.75823 20.1375V6.31728H2.86934V20.1375H3.75823ZM4.44445 20.8886C4.3522 20.8886 4.26089 20.869 4.17597 20.8309C4.09104 20.7927 4.01426 20.7368 3.9502 20.6665C3.88614 20.5962 3.83613 20.513 3.80314 20.4218C3.77016 20.3306 3.75488 20.2332 3.75823 20.1356H2.86934C2.86934 21.0749 3.55734 21.8297 4.44445 21.8297V20.8886ZM27.552 20.8886H4.44445V21.8297H27.5502V20.8886H27.552ZM28.2436 20.1356C28.2436 20.5705 27.9378 20.8886 27.5502 20.8886V21.8297C28.4427 21.8297 29.1325 21.0768 29.1325 20.1356H28.2436ZM28.2436 6.31728V20.1375H29.1325V6.31728H28.2436ZM27.5502 5.57187C27.9396 5.57187 28.2436 5.89187 28.2436 6.31728H29.1325C29.1351 6.09598 29.096 5.87635 29.0175 5.67122C28.9391 5.46609 28.8228 5.27957 28.6755 5.12255C28.5282 4.96553 28.3528 4.84117 28.1596 4.75672C27.9664 4.67226 27.7592 4.62942 27.5502 4.63069V5.57187ZM19.1413 5.57187H27.552V4.63069H19.1431L19.1413 5.57187ZM18.6969 3.46928V5.10128H19.5876V3.46928H18.6969ZM27.552 2.99869H19.1413L19.1431 3.93987H27.552V2.99869ZM30.6685 6.31728C30.6739 5.88146 30.5972 5.44888 30.4427 5.04488C30.2882 4.64087 30.0592 4.27357 29.7689 3.9645C29.4787 3.65543 29.1331 3.41081 28.7524 3.24497C28.3717 3.07912 27.9636 2.99539 27.552 2.99869V3.93987C28.8018 3.93987 29.7796 4.97516 29.7796 6.31728H30.6685ZM30.6685 20.1375V6.31728H29.7796V20.1375H30.6685ZM27.552 23.4636C29.2765 23.4636 30.6685 21.9672 30.6685 20.1375H29.7796C29.7796 21.4552 28.7769 22.5225 27.552 22.5225V23.4636ZM20.3182 30.0236H11.6853V30.9648H20.3165L20.3182 30.0236ZM21.1822 29.0147C21.1982 29.6566 20.8 30.0236 20.3182 30.0236L20.3165 30.9648C21.3013 30.9648 22.0978 30.1592 22.0711 28.9921L21.1822 29.0147ZM20.6311 26.5526L21.1947 29.1088L22.0605 28.8961L21.4951 26.338L20.6311 26.5526ZM19.6711 27.2773L21.1645 26.9027L20.96 25.9879L19.4649 26.3606L19.6729 27.2773H19.6711ZM20.4693 28.7493L20.0018 26.7088L19.1378 26.929L19.6053 28.9695L20.4693 28.7493ZM11.9858 29.329H20.0373V28.3879H11.984L11.9858 29.329ZM12 26.7126L11.5538 28.753L12.4196 28.9657L12.8658 26.9234L12 26.7107V26.7126ZM10.8391 26.9065L12.3324 27.2754L12.5333 26.3587L11.0382 25.9897L10.8391 26.9065ZM10.7911 29.2895L11.3724 26.5488L10.5049 26.3417L9.92356 29.0843L10.7911 29.2895ZM11.6853 30.0236C11.168 30.0236 10.8018 29.6133 10.8018 29.186H9.9129C9.9129 30.1987 10.7396 30.9629 11.6853 30.9629V30.0236Z" fill="currentColor"/>
</svg>
