<svg viewBox="0 0 32 32" preserveAspectRatio="xMinYMin meet" fill="currentColor" xmlns="http://www.w3.org/2000/svg">
<path preserveAspectRatio="xMinYMin meet" d="M7.81334 14.1937C7.78303 13.3376 7.92931 12.4844 8.24307 11.6874C8.55684 10.8903 9.03136 10.1663 9.63709 9.56056C10.2428 8.95484 10.9668 8.48031 11.7639 8.16655C12.561 7.85279 13.4141 7.70651 14.2702 7.73682L14.2311 8.91726C13.536 8.88651 12.8422 9.0023 12.1947 9.25712C11.5472 9.51195 10.9606 9.9001 10.4729 10.3964C9.97971 10.886 9.59357 11.4727 9.33896 12.1193C9.08435 12.7659 8.96681 13.4584 8.99379 14.1528L7.81334 14.1937Z" fill="currentColor" stroke="currentColor" stroke-width="0.5"/>
<path preserveAspectRatio="xMinYMin meet" d="M25.0045 26.6667C24.5633 26.6673 24.14 26.4928 23.8276 26.1814L18.0676 20.4214L18.9031 19.5858L24.6631 25.3458C24.7548 25.4335 24.8767 25.4825 25.0036 25.4825C25.1304 25.4825 25.2524 25.4335 25.344 25.3458C25.4342 25.2555 25.4849 25.1331 25.4849 25.0054C25.4849 24.8777 25.4342 24.7553 25.344 24.665L19.584 18.9032L20.4196 18.0676L26.1796 23.8276C26.4126 24.0601 26.5714 24.3566 26.6358 24.6794C26.7002 25.0022 26.6673 25.3369 26.5412 25.641C26.4152 25.9451 26.2017 26.205 25.9278 26.3876C25.6538 26.5702 25.3337 26.6673 25.0045 26.6667Z" fill="currentColor" stroke="currentColor" stroke-width="0.5" />
<path preserveAspectRatio="xMinYMin meet" d="M13.7582 22.1813C12.0919 22.1817 10.4628 21.6879 9.07713 20.7623C7.69143 19.8368 6.61131 18.5211 5.97338 16.9817C5.33545 15.4423 5.16835 13.7483 5.49323 12.1139C5.8181 10.4795 6.62035 8.97819 7.79853 7.79977C8.9767 6.62135 10.4779 5.81878 12.1122 5.49356C13.7465 5.16834 15.4406 5.33508 16.9801 5.97268C18.5197 6.61029 19.8355 7.69013 20.7614 9.07563C21.6872 10.4611 22.1813 12.0901 22.1813 13.7564C22.179 15.9898 21.2909 18.1311 19.7118 19.7105C18.1327 21.2899 15.9916 22.1785 13.7582 22.1813ZM13.7582 6.51377C11.8374 6.51377 9.99515 7.27683 8.63689 8.6351C7.27863 9.99336 6.51556 11.8356 6.51556 13.7564C6.51556 15.6773 7.27863 17.5195 8.63689 18.8778C9.99515 20.236 11.8374 20.9991 13.7582 20.9991C15.6791 20.9991 17.5213 20.236 18.8796 18.8778C20.2378 17.5195 21.0009 15.6773 21.0009 13.7564C21.0009 11.8356 20.2378 9.99336 18.8796 8.6351C17.5213 7.27683 15.6791 6.51377 13.7582 6.51377Z" fill="currentColor" stroke="currentColor" stroke-width="0.5"/>
</svg>
