<svg preserveAspectRatio="xMinYMin meet" viewBox="0 0 32 32" fill="none" xmlns="http://www.w3.org/2000/svg">
<g clip-path="url(#clip0_29_436)">
<path fill-rule="evenodd" clip-rule="evenodd" d="M7.23201 0C5.83456 0.0069591 4.46868 0.416254 3.29768 1.17895C2.12669 1.94164 1.20014 3.02545 0.628809 4.3008C0.21296 5.23213 -0.00132404 6.24085 9.11725e-06 7.2608V24.7392C-0.00150563 25.6931 0.185741 26.6378 0.550962 27.519C0.916183 28.4002 1.45216 29.2005 2.12801 29.8736C2.80122 30.5484 3.60104 31.0835 4.48158 31.4484C5.36213 31.8133 6.30605 32.0008 7.25921 32H24.7376C25.6914 32.0011 26.6361 31.8136 27.5172 31.4484C28.3983 31.0832 29.1986 30.5475 29.872 29.872C30.548 29.1986 31.084 28.3981 31.4492 27.5166C31.8145 26.6352 32.0016 25.6901 32 24.736V7.264C32.0012 6.31017 31.8138 5.36552 31.4486 4.48437C31.0834 3.60322 30.5476 2.80295 29.872 2.1296C28.5196 0.772148 26.6842 0.00631755 24.768 0L7.23201 0Z" fill="currentColor"/>
<path fill-rule="evenodd" clip-rule="evenodd" d="M25.584 21.1809C25.5836 22.3744 25.1093 23.519 24.2653 24.3629C23.4213 25.2069 22.2768 25.6812 21.0832 25.6817H10.9168C9.72326 25.6812 8.57871 25.2069 7.73474 24.3629C6.89077 23.519 6.41645 22.3744 6.41602 21.1809V11.0145C6.41645 9.8209 6.89077 8.67635 7.73474 7.83238C8.57871 6.98841 9.72326 6.51408 10.9168 6.51366H21.0832C22.2768 6.51408 23.4213 6.98841 24.2653 7.83238C25.1093 8.67635 25.5836 9.8209 25.584 11.0145V21.1809ZM20.9664 4.29126H11.0336C9.23509 4.29126 7.51021 5.00561 6.23831 6.27721C4.9664 7.54881 4.25165 9.27353 4.25122 11.0721V21.0049C4.25101 21.8957 4.42629 22.7778 4.76704 23.6009C5.10779 24.4239 5.60735 25.1718 6.23717 25.8018C6.867 26.4317 7.61476 26.9315 8.43774 27.2724C9.26072 27.6134 10.1428 27.7889 11.0336 27.7889H20.9664C21.8572 27.7889 22.7393 27.6134 23.5623 27.2724C24.3853 26.9315 25.133 26.4317 25.7629 25.8018C26.3927 25.1718 26.8922 24.4239 27.233 23.6009C27.5738 22.7778 27.749 21.8957 27.7488 21.0049V11.0721C27.7486 10.1814 27.573 9.29947 27.2319 8.47667C26.8909 7.65387 26.3911 6.9063 25.7612 6.27665C25.1312 5.64699 24.3834 5.14758 23.5605 4.80693C22.7375 4.46627 21.8555 4.29105 20.9648 4.29126H20.9664Z" fill="white"/>
<path fill-rule="evenodd" clip-rule="evenodd" d="M16 20.048C14.9519 20.048 13.9467 19.6316 13.2055 18.8905C12.4644 18.1494 12.048 17.1441 12.048 16.096C12.048 15.0479 12.4644 14.0427 13.2055 13.3015C13.9467 12.5604 14.9519 12.144 16 12.144C17.0481 12.144 18.0533 12.5604 18.7945 13.3015C19.5356 14.0427 19.952 15.0479 19.952 16.096C19.952 17.1441 19.5356 18.1494 18.7945 18.8905C18.0533 19.6316 17.0481 20.048 16 20.048ZM16 10C15.1995 10 14.4068 10.1577 13.6672 10.464C12.9276 10.7704 12.2555 11.2194 11.6895 11.7855C11.1234 12.3516 10.6744 13.0236 10.368 13.7632C10.0617 14.5028 9.90399 15.2955 9.90399 16.096C9.90399 16.8965 10.0617 17.6892 10.368 18.4288C10.6744 19.1684 11.1234 19.8405 11.6895 20.4065C12.2555 20.9726 12.9276 21.4216 13.6672 21.728C14.4068 22.0343 15.1995 22.192 16 22.192C17.6168 22.192 19.1673 21.5498 20.3105 20.4065C21.4537 19.2633 22.096 17.7128 22.096 16.096C22.096 14.4793 21.4537 12.9287 20.3105 11.7855C19.1673 10.6423 17.6168 10 16 10ZM22.3008 8.35041C22.1103 8.34401 21.9205 8.37601 21.7426 8.44449C21.5647 8.51298 21.4025 8.61655 21.2655 8.74904C21.1284 8.88153 21.0195 9.04023 20.9451 9.2157C20.8707 9.39117 20.8323 9.57981 20.8323 9.77041C20.8323 9.961 20.8707 10.1497 20.9451 10.3251C21.0195 10.5006 21.1284 10.6593 21.2655 10.7918C21.4025 10.9243 21.5647 11.0278 21.7426 11.0963C21.9205 11.1648 22.1103 11.1968 22.3008 11.1904C22.6691 11.178 23.0183 11.023 23.2745 10.7581C23.5307 10.4931 23.6739 10.139 23.6739 9.77041C23.6739 9.40184 23.5307 9.0477 23.2745 8.78275C23.0183 8.5178 22.6691 8.36278 22.3008 8.35041Z" fill="white"/>
</g>
<defs>
<clipPath id="clip0_29_436">
<rect width="32" height="32" fill="none"/>
</clipPath>
</defs>
</svg>
