<svg preserveAspectRatio="xMinYMin meet" viewBox="0 0 32 32" fill="none" xmlns="http://www.w3.org/2000/svg">
<g clip-path="url(#clip0_29_440)">
<path fill-rule="evenodd" clip-rule="evenodd" d="M3.55531 32H28.444C30.4075 32 31.9993 30.4082 31.9993 28.4447V3.55531C31.9993 1.59175 30.4075 0 28.444 0H3.55531C1.59175 0 0 1.59175 0 3.55531V28.444C0 30.4075 1.59175 31.9993 3.55531 31.9993V32Z" fill="currentColor"/>
<path fill-rule="evenodd" clip-rule="evenodd" d="M27.5553 27.5552H22.8066V19.4676C22.8066 17.25 21.9643 16.0109 20.2091 16.0109C18.3 16.0109 17.3024 17.3008 17.3024 19.4676V27.5552H12.7259V12.1479H17.3024V14.2233C17.3024 14.2233 18.6785 11.6774 21.9481 11.6774C25.2178 11.6774 27.5561 13.6734 27.5561 17.8007V27.5559L27.5553 27.5552ZM7.26672 10.1306C5.70809 10.1306 4.4447 8.85762 4.4447 7.28721C4.4447 5.71681 5.70809 4.44385 7.26672 4.44385C8.82534 4.44385 10.088 5.71681 10.088 7.28721C10.088 8.85762 8.82534 10.1306 7.26672 10.1306ZM4.90338 27.5552H9.67496V12.1479H4.90338V27.5552Z" fill="white"/>
</g>
<defs>
<clipPath id="clip0_29_440">
<rect width="32" height="32" fill="white"/>
</clipPath>
</defs>
</svg>
