<svg preserveAspectRatio="xMinYMin meet" viewBox="0 0 32 32" fill="none" xmlns="http://www.w3.org/2000/svg">
<g clip-path="url(#clip0_29_444)">
<path d="M24.4013 0H7.59875C3.41911 0 0 3.41911 0 7.59875V24.4013C0 28.5809 3.41911 32 7.59875 32H24.4013C28.5809 32 32 28.5809 32 24.4013V7.59875C32 3.41911 28.5802 0 24.4013 0ZM23.8483 14.3265C23.8447 14.3398 23.8167 14.3597 23.799 14.356C22.7447 14.2168 21.7361 13.8759 20.8187 13.3444C20.6648 13.2553 20.4035 13.0447 20.2687 12.9895C20.2474 12.9807 20.2319 12.974 20.2076 12.9785V20.0258C19.7939 25.1839 13.845 27.5899 9.93411 24.0898C7.50966 21.9201 7.36168 18.1307 9.4607 15.6731C10.8529 14.0438 12.7679 13.3407 14.9082 13.619C14.9273 13.6249 14.9634 13.6764 14.9634 13.6875V16.9387C14.9634 16.9387 14.942 16.9888 14.9302 16.9902C13.3451 16.4977 11.6562 17.513 11.3705 19.1474C11.2689 19.7283 11.3359 20.2974 11.587 20.832C11.8343 21.3598 12.441 21.9039 12.9755 22.1388C14.691 22.8927 16.5787 21.817 16.8364 19.9853L16.8349 6.73146C16.8489 6.52089 16.8555 6.48997 17.0712 6.47451C17.7434 6.42665 18.4716 6.51279 19.1504 6.47451C19.3897 6.46715 19.3654 6.73219 19.4169 6.90742C19.9617 8.75391 21.4555 10.0858 23.3867 10.303C23.5067 10.3162 23.6864 10.303 23.7983 10.3236C23.8152 10.3265 23.8498 10.3398 23.8498 10.3545V14.3258L23.8483 14.3265Z" fill="currentColor"/>
</g>
<defs>
<clipPath id="clip0_29_444">
<rect width="32" height="32" fill="white"/>
</clipPath>
</defs>
</svg>
