<svg preserveAspectRatio="xMinYMin meet" viewBox="0 0 32 32" fill="none" xmlns="http://www.w3.org/2000/svg">
<g clip-path="url(#clip0_29_450)">
<path d="M16 6C10.4859 6 6 10.4859 6 16C6 17.9014 6.53515 19.7507 7.54872 21.3477L7.78027 21.7126L6.78893 25.3406L10.3219 24.245L10.7021 24.4827C12.2877 25.4748 14.1193 26 16 26C21.5141 26 26 21.5141 26 16C26 10.4859 21.5141 6 16 6ZM21.8767 20.2414L21.6176 20.7366C21.5708 20.8263 21.5095 20.9076 21.4359 20.9774C21.1591 21.2404 20.407 21.8131 19.0944 21.833C17.7044 21.8368 14.8063 20.4139 12.7845 18.4749C10.9176 16.6847 9.86568 14.4106 9.87718 13.4162C9.90171 11.3439 11.1767 10.6454 11.4903 10.5181C11.6889 10.4376 12.0914 10.4154 12.4211 10.4775C12.6265 10.5158 12.7975 10.6561 12.8811 10.8478L13.9483 13.3327C14.0396 13.5412 14.0127 13.7835 13.8778 13.9667L13.1609 14.7679C13.0966 14.8547 13.0585 14.958 13.051 15.0658C13.0436 15.1735 13.0671 15.2811 13.1188 15.3759C13.2499 15.6159 13.7781 16.5835 14.6951 17.3578C15.7347 18.2349 17.1677 18.9134 17.1677 18.9134C17.2792 18.9858 17.4134 19.0145 17.5447 18.9943C17.676 18.9741 17.7954 18.9063 17.8799 18.8038L18.8322 17.6499C18.907 17.5593 19.0101 17.4965 19.1249 17.4713C19.2397 17.4461 19.3596 17.4602 19.4655 17.5112L21.7019 18.5884C21.7882 18.6299 21.8615 18.6942 21.9139 18.7743C21.9663 18.8544 21.9959 18.9473 21.9994 19.043L22.0193 19.615C22.027 19.8335 21.9779 20.0497 21.8767 20.2429V20.2414Z" fill="currentColor"/>
<path d="M24.4013 0H7.59875C3.41911 0 0 3.41911 0 7.59875V24.4013C0 28.5809 3.41911 32 7.59875 32H24.4013C28.5809 32 32 28.5809 32 24.4013V7.59875C32 3.41911 28.5809 0 24.4013 0ZM16.039 27.3146C14.0269 27.3146 12.0626 26.7911 10.3302 25.7964L4.47856 27.6113L6.11743 21.6146C5.09553 19.8645 4.55807 17.8752 4.55807 15.8336C4.55807 9.50267 9.70808 4.35266 16.039 4.35266C22.37 4.35266 27.52 9.50267 27.52 15.8336C27.52 22.1645 22.3692 27.3146 16.039 27.3146Z" fill="currentColor"/>
</g>
<defs>
<clipPath id="clip0_29_450">
<rect width="32" height="32" fill="white"/>
</clipPath>
</defs>
</svg>
