<svg preserveAspectRatio="xMinYMin meet" viewBox="0 0 32 32" fill="none" xmlns="http://www.w3.org/2000/svg">
<g clip-path="url(#clip0_29_453)">
<mask id="mask0_29_453" style="mask-type:alpha" maskUnits="userSpaceOnUse" x="0" y="4" width="32" height="24">
<path fill-rule="evenodd" clip-rule="evenodd" d="M0 4.5H32V27.5H0V4.5Z" fill="white"/>
</mask>
<g mask="url(#mask0_29_453)">
<path fill-rule="evenodd" clip-rule="evenodd" d="M31.3302 8.08576C31.1529 7.39439 30.7981 6.76204 30.3015 6.25203C29.8049 5.74201 29.1838 5.37223 28.5005 5.17971C26.0045 4.49316 15.9942 4.49316 15.9942 4.49316C15.9942 4.49316 5.98395 4.49316 3.48795 5.17971C2.80464 5.37223 2.18357 5.74201 1.68695 6.25203C1.19034 6.76204 0.83559 7.39439 0.65824 8.08576C-0.0114747 10.6491 -0.0114746 15.9978 -0.0114746 15.9978C-0.0114746 15.9978 -0.0114747 21.3453 0.65824 23.9086C0.835696 24.5999 1.19048 25.2322 1.68708 25.7422C2.18368 26.2522 2.80469 26.622 3.48795 26.8147C5.98395 27.5001 15.9942 27.5001 15.9942 27.5001C15.9942 27.5001 26.0045 27.5001 28.5005 26.8124C29.1837 26.6198 29.8046 26.2502 30.3012 25.7404C30.7977 25.2306 31.1526 24.5986 31.3302 23.9075C32 21.343 32 15.9955 32 15.9955C32 15.9955 32 10.6491 31.3302 8.08576Z" fill="currentColor"/>
</g>
<path fill-rule="evenodd" clip-rule="evenodd" d="M12.38 20.94L20.7606 15.9555L12.38 10.97V20.94Z" fill="white"/>
</g>
<defs>
<clipPath id="clip0_29_453">
<rect width="32" height="32" fill="white"/>
</clipPath>
</defs>
</svg>
