<svg viewBox="0 0 32 32" fill="currentColor" xmlns="http://www.w3.org/2000/svg" preserveAspectRatio="xMinYMin meet">
<path d="M24.9335 20.9115L23.9215 19.7787C24.0546 19.6302 24.2126 19.5124 24.3865 19.4322C24.5604 19.3519 24.7467 19.3108 24.9348 19.3111C25.1229 19.3114 25.3091 19.3531 25.4828 19.4339C25.6564 19.5147 25.8142 19.633 25.9469 19.7819L24.9335 20.9115ZM18.3491 28.2587L17.3356 29.3899C17.2026 29.2412 17.0972 29.0647 17.0253 28.8704C16.9534 28.6761 16.9164 28.4679 16.9165 28.2576C16.9167 28.0473 16.9539 27.8392 17.026 27.645C17.0982 27.4508 17.2039 27.2744 17.3371 27.1259L18.3491 28.2587ZM25.6492 21.7147L26.664 20.5851C26.932 20.8856 27.0822 21.2927 27.0817 21.717C27.0812 22.1413 26.9299 22.5479 26.6612 22.8475L25.6492 21.7147ZM19.0648 29.0619L20.0768 30.1947C19.8079 30.4943 19.4437 30.6622 19.0642 30.6616C18.6846 30.661 18.3208 30.4919 18.0528 30.1915L19.0648 29.0619ZM28.8884 15.4267L29.9333 14.3323C30.1243 14.56 30.2516 14.8452 30.2994 15.1527C30.3472 15.4603 30.3135 15.7767 30.2025 16.0631C30.0914 16.3495 29.9078 16.5933 29.6743 16.7645C29.4409 16.9358 29.1677 17.0269 28.8884 17.0267V15.4267ZM1.4314 15.4267H0C0 15.0024 0.150807 14.5954 0.419246 14.2954C0.687684 13.9953 1.05177 13.8267 1.4314 13.8267V15.4267ZM19.0719 3.71473L18.027 4.80913C17.8984 4.65578 17.798 4.47561 17.7317 4.27889C17.6654 4.08218 17.6344 3.87278 17.6405 3.66268C17.6466 3.45257 17.6897 3.24587 17.7673 3.05439C17.8449 2.86291 17.9556 2.69041 18.0928 2.54673L19.0719 3.71473ZM19.8119 2.93873L18.8329 1.77073C18.9701 1.62704 19.1314 1.515 19.3074 1.441C19.4835 1.36701 19.6708 1.33252 19.8588 1.33951C20.0468 1.34649 20.2317 1.39481 20.4029 1.48171C20.5742 1.5686 20.7284 1.69237 20.8569 1.84593L19.8119 2.93873ZM1.4314 16.5611V18.1611C1.05177 18.1611 0.687684 17.9926 0.419246 17.6925C0.150807 17.3924 0 16.9855 0 16.5611H1.4314ZM25.944 22.0443L19.3596 29.3915L17.3371 27.1259L23.9215 19.7787L25.944 22.0443ZM24.6372 22.8443L23.9215 22.0427L25.9469 19.7819L26.6612 20.5851L24.6372 22.8443ZM18.0528 27.9291L24.64 20.5819L26.6612 22.8475L20.0768 30.1947L18.0528 27.9291ZM19.3611 27.1291L20.0782 27.9323L18.0528 30.1915L17.3356 29.3899L19.3611 27.1291ZM28.8884 17.0267H1.4314V13.8267H28.8884V17.0267ZM20.1168 2.62033L29.9333 14.3323L27.8435 16.5211L18.027 4.80913L20.1168 2.62033ZM20.7896 4.10833L20.051 4.88273L18.0928 2.54673L18.8329 1.77073L20.7896 4.10833ZM29.3865 16.6987L18.7685 4.03153L20.8583 1.84433L31.475 14.5099L29.3865 16.7003V16.6987ZM29.2134 15.5819C29.1418 15.7667 29.12 15.9708 29.1508 16.1692C29.1816 16.3676 29.2635 16.5517 29.3865 16.6987L31.4764 14.5099C31.7348 14.8185 31.9069 15.2048 31.9715 15.6212C32.0361 16.0377 31.9904 16.4661 31.84 16.8539L29.2134 15.5819ZM30.0607 14.9579C29.6929 14.9579 29.3594 15.2043 29.2134 15.5819L31.8385 16.8539C31.6885 17.2422 31.4401 17.5728 31.1239 17.8051C30.8077 18.0374 30.4376 18.1611 30.0593 18.1611V14.9611L30.0607 14.9579ZM1.43283 14.9579H30.0593V18.1579H1.4314L1.43283 14.9579ZM2.86422 16.5595H0.00143052V15.4235H2.86422V16.5595Z" fill="currentColor" stroke="currentColor" strokeWidth="1"/>
</svg>
