<svg viewBox="0 0 32 32" fill="none" xmlns="http://www.w3.org/2000/svg" preserveAspectRatio="xMinYMin meet">
<path d="M13.0579 19.5837L11.7955 20.8405C12.1299 21.1738 12.5834 21.361 13.0562 21.361C13.529 21.361 13.9824 21.1738 14.3168 20.8405L13.0579 19.5837ZM24.6407 8.03343L26.4238 7.96765C26.4111 7.62169 26.2974 7.28694 26.0965 7.00451C25.8957 6.72207 25.6166 6.50424 25.2934 6.37775C24.9702 6.25126 24.6169 6.22162 24.277 6.29246C23.9372 6.3633 23.6254 6.53155 23.3801 6.77654L24.6407 8.03343ZM12.1629 18.6948L10.9022 17.4379C10.568 17.7713 10.3802 18.2234 10.3802 18.6948C10.3802 19.1662 10.568 19.6183 10.9022 19.9517L12.1629 18.6948ZM26.2169 16.2343L26.2829 18.0121C26.517 18.0034 26.747 17.9488 26.9599 17.8514C27.1728 17.7541 27.3643 17.6158 27.5236 17.4446C27.6829 17.2734 27.8068 17.0726 27.8882 16.8537C27.9697 16.6347 28.007 16.4019 27.9982 16.1685L26.2152 16.2361L26.2169 16.2343ZM24.9527 16.2841L23.1697 16.3499C23.1784 16.5834 23.2332 16.8129 23.331 17.0253C23.4288 17.2376 23.5676 17.4287 23.7395 17.5876C23.9114 17.7464 24.113 17.8699 24.3328 17.951C24.5526 18.0321 24.7863 18.0691 25.0205 18.0601L24.9527 16.2841ZM12.1629 18.6948L10.9022 17.4379C10.568 17.7713 10.3802 18.2234 10.3802 18.6948C10.3802 19.1662 10.568 19.6183 10.9022 19.9517L12.1629 18.6948ZM23.7474 7.14454L25.008 8.40143C25.2532 8.15674 25.4214 7.84607 25.4921 7.50749C25.5628 7.16891 25.5329 6.81711 25.4061 6.4952C25.2793 6.17329 25.0611 5.89524 24.7782 5.69513C24.4953 5.49501 24.16 5.38151 23.8134 5.36854L23.7474 7.14454ZM13.0579 19.5837L11.7955 20.8405C12.1299 21.1738 12.5834 21.361 13.0562 21.361C13.529 21.361 13.9824 21.1738 14.3168 20.8405L13.0579 19.5837ZM25.8068 6.33921L27.4686 5.69032L25.8086 6.33921H25.8068ZM15.5239 5.57299L15.5917 3.79521C15.3576 3.78641 15.1241 3.82366 14.9045 3.90486C14.6849 3.98605 14.4835 4.10958 14.3118 4.2684C14.1401 4.42722 14.0015 4.61821 13.9038 4.83046C13.8061 5.04271 13.7514 5.27207 13.7426 5.50543L15.5239 5.57299ZM15.4758 6.83343L13.6927 6.76588C13.6839 6.99923 13.7213 7.23204 13.8027 7.45099C13.8841 7.66994 14.008 7.87075 14.1673 8.04195C14.3266 8.21315 14.5182 8.35139 14.731 8.44876C14.9439 8.54612 15.174 8.60072 15.408 8.60943L15.4758 6.83343ZM14.3186 20.8423L25.9031 9.2921L23.3819 6.77832L11.7973 18.3285L14.3186 20.8423ZM10.904 19.9517L11.7973 20.8423L14.3186 18.3285L13.4253 17.4379L10.904 19.9517ZM23.5103 4.86721L10.904 17.4361L13.4253 19.9517L26.0333 7.38099L23.5103 4.86721ZM26.101 4.32676C25.6635 4.15612 25.1856 4.11636 24.7258 4.21235C24.2659 4.30834 23.8424 4.53591 23.5103 4.86721L26.0333 7.38099C25.8748 7.53857 25.6737 7.6467 25.4546 7.69216C25.2354 7.73763 25.0078 7.71845 24.7994 7.63699L26.101 4.32676ZM27.6345 6.47788C27.6165 6.00945 27.4619 5.55642 27.1895 5.17432C26.9171 4.79223 26.5388 4.49767 26.101 4.32676L24.7994 7.63699C24.5909 7.55561 24.4107 7.41542 24.2809 7.23355C24.1511 7.05169 24.0772 6.83604 24.0683 6.61299L27.6345 6.47788ZM28 16.1685L27.6327 6.47788L24.0683 6.61299L24.4357 16.3019L28 16.1685ZM25.0223 18.0601L26.2865 18.0121L26.151 14.4601L24.8868 14.5063L25.0223 18.0601ZM22.8612 8.10454L23.1733 16.3499L26.7358 16.2165L26.4238 7.96765L22.8612 8.10454ZM13.4253 19.9517L25.0098 8.40143L22.4868 5.88765L10.904 17.4361L13.4253 19.9517ZM14.3186 18.3285L13.4253 17.4379L10.904 19.9517L11.7973 20.8423L14.3186 18.3285ZM24.4053 5.75788L11.7973 18.3285L14.3186 20.8423L26.9266 8.27343L24.4053 5.75788ZM24.1486 6.9881C24.0666 6.78038 24.0473 6.55333 24.0929 6.3348C24.1385 6.11627 24.2471 5.91576 24.4053 5.75788L26.9266 8.27343C27.6059 7.59788 27.8181 6.58276 27.4686 5.69032L24.1486 6.9881ZM25.1756 7.71699C24.9519 7.70838 24.7355 7.63483 24.553 7.50535C24.3706 7.37587 24.23 7.1961 24.1486 6.9881L27.4686 5.69032C27.2972 5.25381 27.0018 4.87666 26.6186 4.60509C26.2353 4.33351 25.781 4.17933 25.3111 4.16143L25.1756 7.71699ZM15.4579 7.35076L25.1756 7.71699L25.3111 4.16321L15.5899 3.79521L15.4544 7.34899L15.4579 7.35076ZM17.2588 6.89921L17.3052 5.64054L13.7426 5.50543L13.6927 6.76588L17.2588 6.89921ZM23.8134 5.36854L15.5435 5.05565L15.408 8.60943L23.6814 8.92054L23.8134 5.36854Z" fill="currentColor"/>
<path d="M20.0475 20.4191V28.2058H4V12.2058H12.1486" stroke="currentColor" stroke-width="2" stroke-linejoin="round"/>
</svg>
