<svg viewBox="0 0 32 32" fill="none" xmlns="http://www.w3.org/2000/svg" preserveAspectRatio="xMinYMin meet">
<g clip-path="url(#clip0_29_361)">
<path stroke="currentColor" strokeWidth="1" d="M7.06652 11.0892L8.07852 12.2218C7.94539 12.3704 7.78738 12.4881 7.61351 12.5684C7.43964 12.6486 7.25332 12.6898 7.06521 12.6895C6.87711 12.6892 6.6909 12.6474 6.51723 12.5666C6.34356 12.4859 6.18585 12.3676 6.0531 12.2186L7.06652 11.0892ZM13.6509 3.74271L14.6644 2.61162C14.7974 2.76031 14.9028 2.93683 14.9747 3.13111C15.0467 3.32538 15.0836 3.53359 15.0835 3.74384C15.0833 3.95408 15.0461 4.16223 14.974 4.35639C14.9018 4.55055 14.7961 4.72691 14.6629 4.87539L13.6509 3.74271ZM6.35083 10.286L5.33597 11.4155C5.068 11.1151 4.91777 10.708 4.9183 10.2838C4.91884 9.85956 5.0701 9.45295 5.33883 9.15336L6.35083 10.286ZM12.9352 2.93959L11.9232 1.8069C12.1921 1.5074 12.5563 1.33949 12.9358 1.34009C13.3154 1.34069 13.6792 1.50975 13.9472 1.8101L12.9352 2.93959ZM3.11158 16.5734L2.06666 17.6677C1.87565 17.44 1.74841 17.1549 1.70059 16.8474C1.65277 16.5399 1.68646 16.2235 1.79753 15.9371C1.90859 15.6507 2.09217 15.4069 2.32566 15.2357C2.55914 15.0645 2.83233 14.9734 3.11158 14.9736V16.5734ZM30.5686 16.5734H32C32 16.9977 31.8492 17.4046 31.5808 17.7047C31.3123 18.0047 30.9482 18.1732 30.5686 18.1732V16.5734ZM12.9281 28.2842L13.973 27.1899C14.1016 27.3433 14.202 27.5234 14.2683 27.7201C14.3346 27.9168 14.3656 28.1262 14.3595 28.3363C14.3534 28.5464 14.3103 28.753 14.2327 28.9445C14.1551 29.136 14.0444 29.3084 13.9072 29.4521L12.9281 28.2842ZM12.1881 29.0601L13.1671 30.228C13.0299 30.3717 12.8686 30.4837 12.6926 30.5577C12.5165 30.6317 12.3292 30.6662 12.1412 30.6592C11.9532 30.6522 11.7683 30.6039 11.5971 30.517C11.4258 30.4301 11.2716 30.3064 11.1431 30.1528L12.1881 29.0601ZM30.5686 15.4391V13.8393C30.9482 13.8393 31.3123 14.0078 31.5808 14.3079C31.8492 14.6079 32 15.0148 32 15.4391H30.5686ZM6.05596 9.95648L12.6404 2.61002L14.6629 4.87539L8.07852 12.2218L6.05596 9.95648ZM7.36282 9.15656L8.07852 9.95808L6.0531 12.2186L5.33883 11.4155L7.36282 9.15656ZM13.9472 4.07227L7.35996 11.4187L5.33883 9.15336L11.9232 1.8069L13.9472 4.07227ZM12.6389 4.87219L11.9218 4.06907L13.9472 1.8101L14.6644 2.61162L12.6389 4.87219ZM3.11158 14.9736H30.5686V18.1732H3.11158V14.9736ZM11.8832 29.3785L2.06666 17.6677L4.1565 15.4791L13.973 27.1899L11.8832 29.3785ZM11.2104 27.8907L11.949 27.1163L13.9072 29.4521L13.1671 30.228L11.2104 27.8907ZM2.61345 15.3015L13.2315 27.9675L11.1417 30.1544L0.525046 17.4901L2.61345 15.2999V15.3015ZM2.78665 16.4182C2.85824 16.2335 2.87999 16.0294 2.84922 15.831C2.81845 15.6326 2.7365 15.4486 2.61345 15.3015L0.523615 17.4901C0.265198 17.1816 0.0931069 16.7954 0.0285114 16.3789C-0.0360841 15.9625 0.00963353 15.5341 0.16004 15.1464L2.78665 16.4182ZM1.93926 17.0422C2.30713 17.0422 2.64065 16.7958 2.78665 16.4182L0.161472 15.1464C0.311524 14.7582 0.559951 14.4276 0.876115 14.1953C1.19228 13.963 1.56235 13.8393 1.9407 13.8393V17.039L1.93926 17.0422ZM30.5672 17.0422H1.9407V13.8425H30.5686L30.5672 17.0422ZM29.1358 16.575V15.4407H31.9986V16.5766H29.1358V16.575Z" fill="currentColor"/>
</g>
<defs>
<clipPath id="clip0_29_361">
<rect width="32" height="32" fill="none"/>
</clipPath>
</defs>
</svg>
