<svg width="32" height="33" viewBox="0 0 32 33" fill="none" xmlns="http://www.w3.org/2000/svg" preserveAspectRatio="xMinYMin meet">
<path d="M14.2 1H26.8M5.2 10H26.8M5.2 19H26.8" stroke="currentColor" stroke-width="2"/>
<path d="M3.69221 23.7273H4.74334L7.21493 29.7642H7.30016L9.77175 23.7273H10.8229V31H9.99902V25.4744H9.928L7.65527 31H6.85982L4.58709 25.4744H4.51607V31H3.69221V23.7273ZM14.762 31.1136C14.2364 31.1136 13.7831 30.9976 13.4019 30.7656C13.0231 30.5312 12.7307 30.2045 12.5248 29.7855C12.3212 29.3641 12.2194 28.8741 12.2194 28.3153C12.2194 27.7566 12.3212 27.2642 12.5248 26.8381C12.7307 26.4096 13.0172 26.0758 13.3841 25.8366C13.7535 25.5952 14.1843 25.4744 14.6768 25.4744C14.9608 25.4744 15.2414 25.5218 15.5184 25.6165C15.7954 25.7112 16.0475 25.8651 16.2748 26.0781C16.502 26.2888 16.6832 26.5682 16.8181 26.9162C16.953 27.2642 17.0205 27.6927 17.0205 28.2017V28.5568H12.816V27.8324H16.1682C16.1682 27.5246 16.1067 27.25 15.9836 27.0085C15.8628 26.767 15.69 26.5765 15.4651 26.4368C15.2426 26.2971 14.9798 26.2273 14.6768 26.2273C14.343 26.2273 14.0541 26.3101 13.8103 26.4759C13.5688 26.6392 13.383 26.8523 13.2528 27.1151C13.1225 27.3778 13.0574 27.6596 13.0574 27.9602V28.4432C13.0574 28.8551 13.1285 29.2043 13.2705 29.4908C13.4149 29.7749 13.615 29.9915 13.8706 30.1406C14.1263 30.2874 14.4234 30.3608 14.762 30.3608C14.9822 30.3608 15.181 30.33 15.3586 30.2685C15.5385 30.2045 15.6936 30.1098 15.8238 29.9844C15.954 29.8565 16.0546 29.6979 16.1256 29.5085L16.9353 29.7358C16.8501 30.0104 16.7068 30.2519 16.5056 30.4602C16.3044 30.6662 16.0558 30.8272 15.7599 30.9432C15.4639 31.0568 15.1313 31.1136 14.762 31.1136ZM19.1334 27.7188V31H18.2954V25.5455H19.105V26.3977H19.176C19.3039 26.1207 19.498 25.8982 19.7584 25.7301C20.0189 25.5597 20.355 25.4744 20.767 25.4744C21.1363 25.4744 21.4594 25.5502 21.7364 25.7017C22.0134 25.8509 22.2288 26.0781 22.3827 26.3835C22.5366 26.6866 22.6135 27.0701 22.6135 27.5341V31H21.7755V27.5909C21.7755 27.1624 21.6642 26.8286 21.4417 26.5895C21.2191 26.348 20.9137 26.2273 20.5255 26.2273C20.258 26.2273 20.0189 26.2853 19.8081 26.4013C19.5998 26.5173 19.4353 26.6866 19.3145 26.9091C19.1938 27.1316 19.1334 27.4015 19.1334 27.7188ZM27.5825 28.7699V25.5455H28.4205V31H27.5825V30.0767H27.5257C27.3978 30.3537 27.199 30.5893 26.9291 30.7834C26.6592 30.9751 26.3183 31.071 25.9063 31.071C25.5654 31.071 25.2624 30.9964 24.9972 30.8473C24.7321 30.6958 24.5238 30.4685 24.3722 30.1655C24.2207 29.8601 24.145 29.4754 24.145 29.0114V25.5455H24.983V28.9545C24.983 29.3523 25.0943 29.6695 25.3169 29.9062C25.5418 30.143 25.8282 30.2614 26.1762 30.2614C26.3846 30.2614 26.5964 30.2081 26.8119 30.1016C27.0297 29.995 27.212 29.8317 27.3588 29.6115C27.5079 29.3913 27.5825 29.1108 27.5825 28.7699Z" fill="currentColor"/>
</svg>
