<svg preserveAspectRatio="xMinYMin meet" viewBox="0 0 32 32" fill="none" xmlns="http://www.w3.org/2000/svg">
<path d="M6.70661 16.5393H4C4 17.2571 4.28516 17.9456 4.79275 18.4531C5.30034 18.9607 5.98877 19.2459 6.70661 19.2459V16.5393ZM23.5093 16.5393L25.4959 18.3798C25.8542 17.9935 26.0919 17.5111 26.1799 16.9917C26.268 16.4722 26.2025 15.9384 25.9916 15.4557C25.7807 14.9729 25.4335 14.5622 24.9925 14.2739C24.5516 13.9856 24.0361 13.8323 23.5093 13.8327V16.5393ZM6.70661 15.4566V12.75C5.98877 12.75 5.30034 13.0352 4.79275 13.5428C4.28516 14.0504 4 14.7388 4 15.4566H6.70661ZM18.456 23.5846L16.6155 25.5712C17.1421 26.0589 17.8408 26.3175 18.558 26.2901C19.2752 26.2627 19.9521 25.9515 20.44 25.4251L18.456 23.5846ZM17.663 22.8484L15.6763 21.0079C15.4344 21.2687 15.2463 21.5746 15.1228 21.9082C14.9992 22.2417 14.9426 22.5963 14.9561 22.9518C14.9697 23.3072 15.0532 23.6565 15.2019 23.9796C15.3505 24.3028 15.5614 24.5935 15.8225 24.8351L17.663 22.8484ZM6.70661 15.4566V12.75C5.98877 12.75 5.30034 13.0352 4.79275 13.5428C4.28516 14.0504 4 14.7388 4 15.4566H6.70661ZM23.5093 15.4593V18.166C24.0361 18.1664 24.5516 18.013 24.9925 17.7247C25.4335 17.4364 25.7807 17.0257 25.9916 16.543C26.2025 16.0602 26.268 15.5264 26.1799 15.007C26.0919 14.4875 25.8542 14.0051 25.4959 13.6188L23.5093 15.4593ZM6.70661 16.5393H4C4 17.2571 4.28516 17.9456 4.79275 18.4531C5.30034 18.9607 5.98877 19.2459 6.70661 19.2459V16.5393ZM18.456 8.41403L20.44 6.57353C19.9518 6.04746 19.2746 5.73681 18.5574 5.70991C17.8403 5.68301 17.1418 5.94206 16.6155 6.43008L18.456 8.41403ZM17.663 9.15023L15.8225 7.16628C15.2957 7.65373 14.984 8.33048 14.9561 9.04768C14.9282 9.76488 15.1863 10.4638 15.6736 10.9907L17.6603 9.15023H17.663ZM6.70661 19.2459H23.5093V13.8327H6.70661V19.2459ZM4 15.4566V16.5393H9.41323V15.4566H4ZM24.7516 12.75H6.70661V18.1632H24.7516V12.75ZM27.7289 14.6988C27.4761 14.1195 27.0597 13.6266 26.5309 13.2804C26.002 12.9343 25.3837 12.7499 24.7516 12.75V18.1632C24.3299 18.1637 23.9173 18.0409 23.5644 17.8102C23.2115 17.5794 22.9336 17.2506 22.7649 16.8641L27.7262 14.6988H27.7289ZM27.1334 18.2093C27.5632 17.7459 27.8484 17.1672 27.9542 16.5442C28.06 15.9211 27.9817 15.2807 27.7289 14.7015L22.7649 16.8641C22.5965 16.4778 22.5445 16.0536 22.6152 15.6382C22.6858 15.2228 22.8762 14.8371 23.1628 14.5283L27.1334 18.2093ZM20.4373 25.4251L27.1334 18.2093L23.1628 14.5283L16.4694 21.7441L20.4373 25.4251ZM15.8198 24.8351L16.6128 25.5712L20.2938 21.6006L19.4981 20.8644L15.8198 24.8351ZM21.5253 14.6988L15.679 21.0052L19.6469 24.6862L25.4932 18.3798L21.5253 14.6988ZM6.70661 18.1632L23.5093 18.166V12.75H6.70661V18.1632ZM9.41323 16.5393V15.4566H4V16.5393H9.41323ZM24.7516 13.8327H6.70661V19.2459H24.7516V13.8327ZM22.7649 15.1346C22.9336 14.7481 23.2115 14.4166 23.5644 14.1858C23.9173 13.955 24.3299 13.8323 24.7516 13.8327V19.2459C25.3837 19.246 26.002 19.0617 26.5309 18.7155C27.0597 18.3694 27.4761 17.8764 27.7289 17.2971L22.7649 15.1346ZM23.1628 17.4704C22.8762 17.1615 22.6858 16.7758 22.6152 16.3604C22.5445 15.9451 22.5965 15.5208 22.7649 15.1346L27.7262 17.2971C27.9789 16.7179 28.0573 16.0775 27.9515 15.4545C27.8457 14.8314 27.5605 14.2527 27.1307 13.7894L23.1628 17.4704ZM16.4721 10.2545L23.1628 17.4704L27.1334 13.7921L20.4373 6.57353L16.4721 10.2545ZM19.5035 11.1342L20.2965 10.398L16.6155 6.43008L15.8225 7.16628L19.5035 11.1342ZM25.4959 13.6188L19.6469 7.30973L15.6736 10.9907L21.5226 17.2971L25.4986 13.6161L25.4959 13.6188Z" fill="currentColor"/>
</svg>
