<svg preserveAspectRatio="xMinYMin meet" viewBox="0 0 32 32" fill="none" xmlns="http://www.w3.org/2000/svg">
<path d="M25.2934 15.4608H28C28 14.743 27.7148 14.0545 27.2073 13.5469C26.6997 13.0393 26.0112 12.7542 25.2934 12.7542V15.4608ZM8.49073 15.4608L6.50408 13.6203C6.14584 14.0066 5.90811 14.489 5.82006 15.0084C5.73201 15.5278 5.79745 16.0617 6.00837 16.5444C6.2193 17.0272 6.56652 17.4379 7.00746 17.7262C7.44841 18.0145 7.96391 18.1678 8.49073 18.1674V15.4608ZM25.2934 16.5434V19.2501C26.0112 19.2501 26.6997 18.9649 27.2073 18.4573C27.7148 17.9497 28 17.2613 28 16.5434H25.2934ZM13.544 8.41548L15.3845 6.42883C14.8579 5.94115 14.1592 5.68258 13.442 5.70998C12.7248 5.73739 12.0479 6.04854 11.56 6.57499L13.544 8.41548ZM14.337 9.15168L16.3237 10.9922C16.5656 10.7314 16.7537 10.4255 16.8772 10.0919C17.0008 9.75838 17.0574 9.40375 17.0439 9.04831C17.0303 8.69287 16.9468 8.34359 16.7981 8.02044C16.6495 7.69729 16.4386 7.40661 16.1775 7.16503L14.337 9.15168ZM25.2934 16.5434V19.2501C26.0112 19.2501 26.6997 18.9649 27.2073 18.4573C27.7148 17.9497 28 17.2613 28 16.5434H25.2934ZM8.49073 16.5407V13.8341C7.96391 13.8337 7.44841 13.987 7.00746 14.2753C6.56652 14.5636 6.2193 14.9744 6.00837 15.4571C5.79745 15.9399 5.73201 16.4737 5.82006 16.9931C5.90811 17.5125 6.14584 17.995 6.50408 18.3812L8.49073 16.5407ZM25.2934 15.4608H28C28 14.743 27.7148 14.0545 27.2073 13.5469C26.6997 13.0393 26.0112 12.7542 25.2934 12.7542V15.4608ZM13.544 23.5861L11.56 25.4265C12.0482 25.9526 12.7254 26.2633 13.4426 26.2902C14.1597 26.3171 14.8583 26.058 15.3845 25.57L13.544 23.5861ZM14.337 22.8499L16.1775 24.8338C16.7043 24.3463 17.016 23.6696 17.0439 22.9524C17.0718 22.2352 16.8137 21.5363 16.3264 21.0094L14.3397 22.8499H14.337ZM25.2934 12.7542H8.49073V18.1674H25.2934V12.7542ZM28 16.5434V15.4608H22.5868V16.5434H28ZM7.2484 19.2501H25.2934V13.8368H7.2484V19.2501ZM4.27112 17.3013C4.52395 17.8806 4.9403 18.3735 5.46914 18.7197C5.99799 19.0658 6.61634 19.2502 7.2484 19.2501V13.8368C7.67008 13.8364 8.0827 13.9591 8.43562 14.1899C8.78853 14.4207 9.06638 14.7495 9.23505 15.136L4.27383 17.3013H4.27112ZM4.86658 13.7908C4.43682 14.2542 4.15158 14.8329 4.04581 15.4559C3.94004 16.079 4.01835 16.7194 4.27112 17.2986L9.23505 15.136C9.40345 15.5222 9.45551 15.9465 9.38484 16.3619C9.31416 16.7773 9.12384 17.163 8.83718 17.4718L4.86658 13.7908ZM11.5627 6.57499L4.86658 13.7908L8.83718 17.4718L15.5306 10.256L11.5627 6.57499ZM16.1802 7.16503L15.3872 6.42883L11.7062 10.3994L12.5019 11.1356L16.1802 7.16503ZM10.4747 17.3013L16.321 10.9949L12.3531 7.31389L6.50679 13.6203L10.4747 17.3013ZM25.2934 13.8368L8.49073 13.8341V19.2501H25.2934V13.8368ZM22.5868 15.4608V16.5434H28V15.4608H22.5868ZM7.2484 18.1674H25.2934V12.7542H7.2484V18.1674ZM9.23505 16.8655C9.06638 17.252 8.78853 17.5835 8.43562 17.8143C8.0827 18.0451 7.67008 18.1678 7.2484 18.1674V12.7542C6.61634 12.7541 5.99799 12.9384 5.46914 13.2846C4.9403 13.6307 4.52395 14.1237 4.27112 14.7029L9.23505 16.8655ZM8.83718 14.5297C9.12384 14.8385 9.31416 15.2243 9.38484 15.6396C9.45551 16.055 9.40345 16.4793 9.23505 16.8655L4.27383 14.7029C4.02105 15.2822 3.94275 15.9226 4.04852 16.5456C4.15428 17.1687 4.43953 17.7474 4.86928 18.2107L8.83718 14.5297ZM15.5279 21.7456L8.83718 14.5297L4.86658 18.208L11.5627 25.4265L15.5279 21.7456ZM12.4965 20.8659L11.7035 21.6021L15.3845 25.57L16.1775 24.8338L12.4965 20.8659ZM6.50408 18.3812L12.3531 24.6903L16.3264 21.0094L10.4774 14.7029L6.50137 18.3839L6.50408 18.3812Z" fill="currentColor"/>
</svg>
