<svg preserveAspectRatio="xMinYMin meet" viewBox="0 0 32 32" fill="none" xmlns="http://www.w3.org/2000/svg">
<rect width="32" height="32" fill="none"/>
<rect x="-315" y="-3300" width="4827" height="3613" rx="2" fill="none"/>
<rect x="-314.5" y="-3299.5" width="4826" height="3612" rx="1.5" stroke="currentColor" stroke-opacity="0.1"/>
<rect x="-205.5" y="-19.5" width="263.179" height="257" rx="4.5" stroke="currentColor" stroke-dasharray="10 5"/>
<path fill-rule="evenodd" clip-rule="evenodd" d="M9.44766 3.58954C6.18078 3.58954 3.61922 6.49723 3.61922 10.2098C3.61922 13.6382 5.62145 16.1951 8.71958 16.7231C8.90771 16.7564 9.07781 16.8531 9.20016 16.9962C9.32251 17.1393 9.38931 17.3197 9.38889 17.5058V20.912L13.5886 16.7582C13.6635 16.6842 13.7526 16.6254 13.8509 16.5852C13.9491 16.5449 14.0546 16.524 14.1612 16.5237H16.3303C19.692 16.5237 22.3256 13.6806 22.3256 10.0548C22.3256 6.42892 19.692 3.58769 16.3303 3.58769L9.44766 3.58954ZM8.58117 23.6332C8.36624 23.6303 8.16109 23.5453 8.00999 23.3964C7.85889 23.2476 7.77393 23.0468 7.77346 22.8375V18.1428C4.29232 17.2418 2 14.1366 2 10.2098C2.0019 5.60738 5.27068 2 9.44766 2H16.3303C20.5983 2 23.9429 5.53723 23.9429 10.0548C23.9429 14.5723 20.5983 18.1095 16.3303 18.1095H14.5006L9.15378 23.3969C9.07898 23.471 8.9899 23.5301 8.89164 23.5706C8.79339 23.6112 8.68788 23.6324 8.58117 23.6332ZM25.492 26C25.3858 25.9996 25.2808 25.9789 25.1829 25.939C25.0849 25.8991 24.996 25.8408 24.9213 25.7674L22.0507 22.9483H20.5168C19.6351 22.9483 18.744 22.6954 17.9419 22.2135L18.7838 20.8585C19.3393 21.1908 19.9214 21.3625 20.5168 21.3625H22.3844C22.4905 21.362 22.5956 21.3821 22.6937 21.4217C22.7917 21.4614 22.8805 21.5197 22.9551 21.5932L24.6843 23.288V21.8905C24.6836 21.6858 24.764 21.4889 24.9089 21.3406C25.0537 21.1924 25.2517 21.1043 25.4617 21.0948C27.316 21.0283 29.3808 19.1674 29.3808 16.6123C29.3808 14.8308 28.4309 13.2302 26.9614 12.5397L27.663 11.1071C29.6898 12.0615 31 14.2215 31 16.6123C31 19.5108 28.9181 22.0751 26.3016 22.592V25.2062C26.3021 25.3099 26.2816 25.4128 26.2413 25.5088C26.201 25.6049 26.1416 25.6922 26.0666 25.766C25.9916 25.8397 25.9024 25.8983 25.8041 25.9384C25.7059 25.9786 25.5986 25.9995 25.492 26ZM17.6424 10.4498H7.97633V9.66154H17.6424V10.4498ZM7.97633 8.03138H17.6424V7.23754H7.97823L7.97633 8.03138ZM12.8094 12.872H7.97823V12.08H12.8112L12.8094 12.872Z" fill="currentColor"/>
<path d="M9.13858 20.656H8.64795V21.7404L9.48987 20.9671L9.13858 20.656ZM13.4856 16.656L13.1362 16.3413L13.4856 16.6542V16.656ZM7.46651 17.9911H7.95714V17.648L7.59211 17.5591L7.46651 17.9911ZM14.4295 17.9573V17.5129H14.2235L14.0782 17.6462L14.4295 17.9573ZM8.89523 23.0489L9.24456 23.3636L9.24652 23.3618L8.89719 23.0507L8.89523 23.0489ZM22.2463 22.6169L22.5936 22.304L22.4504 22.1724H22.2463V22.6169ZM17.9935 21.9093L17.5735 21.6782L17.3223 22.0569L17.7344 22.288L17.9935 21.9093ZM18.8648 20.6044L19.12 20.2258L18.7 19.9929L18.4449 20.3751L18.8648 20.6044ZM24.9722 22.944L24.6248 23.2569L25.4628 24.0213V22.944H24.9722ZM25.7768 20.832L25.7611 20.3876H25.7572L25.7768 20.832ZM27.3292 12.5938L26.8876 12.4018L26.6776 12.8018L27.1153 12.9938L27.3292 12.5938ZM28.0553 11.2142L28.2692 10.8142L27.8238 10.6187L27.6118 11.024L28.0553 11.2142ZM26.6462 22.272L26.5481 21.8382L26.1556 21.9093V22.2738H26.6462V22.272ZM26.1301 25.4969L25.9437 25.0862L26.1301 25.4951V25.4969ZM7.67846 10.5813H7.18783V11.0258H7.67846V10.5813ZM17.6814 10.5813V11.0258H18.1721V10.5813H17.6814ZM7.67846 9.82222V9.37778H7.18783V9.82222H7.67846ZM17.6814 9.82222H18.1721V9.37778H17.6814V9.82222ZM17.6814 8.25244V8.69689H18.1721V8.25244H17.6814ZM7.67846 8.25244H7.18783V8.69689H7.67846V8.25244ZM17.6814 7.48978H18.1721V7.04533H17.6814V7.48978ZM7.67846 7.48978V7.04533H7.18783V7.48978H7.67846ZM7.67846 12.9156H7.18783V13.36H7.67846V12.9156ZM12.6809 12.9156V13.36H13.1716V12.9156H12.6809ZM7.67846 12.1511V11.7067H7.18783V12.1511H7.67846ZM12.6809 12.1511H13.1716V11.7067H12.6809V12.1511ZM3.65726 10.3502C3.65726 6.95467 6.15555 4.41956 9.19942 4.41956V3.53067C5.47848 3.53067 2.67599 6.59556 2.67599 10.3502H3.65726ZM8.5302 16.1849C5.59819 15.7191 3.65726 13.472 3.65726 10.3502H2.67599C2.67599 13.8293 4.88187 16.5084 8.36142 17.0596L8.5302 16.1849ZM9.62921 17.376C9.62952 17.0922 9.51958 16.8173 9.31864 16.5995C9.11771 16.3818 8.8386 16.235 8.5302 16.1849L8.36142 17.0596C8.44283 17.0733 8.51435 17.1125 8.56708 17.1704C8.61981 17.2282 8.64843 17.301 8.64795 17.376H9.62921ZM9.62921 20.656V17.376H8.64795V20.656H9.62921ZM13.1343 16.3431L8.78925 20.3431L9.48987 20.9671L13.8349 16.9671L13.1343 16.3431ZM14.0782 15.9858C13.9031 15.9858 13.7297 16.0172 13.568 16.0782C13.4063 16.1392 13.2596 16.2287 13.1362 16.3413L13.8349 16.9671C13.867 16.9378 13.9033 16.9145 13.9454 16.8987C13.9875 16.8828 14.0326 16.8746 14.0782 16.8747V15.9858ZM16.3234 15.9858H14.0782V16.8747H16.3234V15.9858ZM22.0382 10.2009C22.0382 13.4898 19.487 15.9858 16.3234 15.9858V16.8747C20.1209 16.8747 23.0195 13.8933 23.0195 10.2009H22.0382ZM16.3234 4.41778C19.487 4.41778 22.0382 6.91022 22.0382 10.2009H23.0195C23.0195 6.50667 20.1209 3.52889 16.3234 3.52889V4.41778ZM9.19942 4.41778H16.3234V3.52889L9.19942 3.53067V4.41778ZM7.79229 23.6249C7.95366 23.687 8.1272 23.7191 8.30255 23.7191V22.8302C8.25874 22.8304 8.21534 22.8243 8.17498 22.8089L7.79229 23.6249ZM6.97588 22.5084C6.97588 22.9973 7.29773 23.4382 7.79229 23.6267L8.17302 22.8071C8.10851 22.7822 8.05358 22.7405 8.01517 22.6874C7.97675 22.6342 7.95656 22.572 7.95714 22.5084H6.97588ZM6.97588 17.9876V22.5084H7.95714V17.9911L6.97588 17.9893V17.9876ZM1 10.3502C1 14.3058 3.4924 17.4916 7.33895 18.4196L7.59015 17.5609C4.23424 16.7502 1.98126 13.9591 1.98126 10.3502H1ZM9.19942 2C4.5502 2 1 5.72622 1 10.3502H1.98126C1.98126 6.10844 5.1998 2.88889 9.19746 2.88889L9.19942 2ZM16.3234 2H9.19942L9.19746 2.88889H16.3234V2ZM24.6935 10.2009C24.6935 5.64089 21.0511 2 16.3234 2V2.88889C20.4329 2.88889 23.7123 6.06044 23.7123 10.2009H24.6935ZM16.3234 18.4018C21.0511 18.4018 24.6935 14.7609 24.6935 10.2009H23.7123C23.7123 14.3413 20.4349 17.5129 16.3234 17.5129V18.4018ZM14.4295 18.4018H16.3234V17.5129H14.4295V18.4018ZM9.24652 23.3618L14.7789 18.2667L14.0782 17.6462L8.54786 22.736L9.24652 23.3582V23.3618ZM8.30255 23.7209C8.47781 23.7205 8.65124 23.6887 8.8129 23.6273C8.97456 23.566 9.12125 23.4764 9.24456 23.3636L8.54786 22.736C8.48337 22.7962 8.39513 22.8307 8.30255 22.832V23.7209ZM24.8682 25.6444C25.1233 25.8756 25.4648 26 25.8102 26V25.1111C25.7646 25.1111 25.7194 25.103 25.6773 25.0871C25.6352 25.0712 25.597 25.048 25.5649 25.0187L24.8682 25.6444ZM21.8969 22.9298L24.8682 25.6444L25.5649 25.0187L22.5936 22.304L21.8969 22.9298ZM20.6605 23.0613H22.2443V22.1724H20.6586L20.6605 23.0613ZM17.7344 22.288C18.6372 22.7911 19.6479 23.0613 20.6605 23.0613L20.6586 22.1724C19.8402 22.1724 19.0081 21.9538 18.2506 21.5324L17.7344 22.288ZM18.4449 20.3751L17.5735 21.6782L18.4135 22.1404L19.2848 20.8338L18.4449 20.3751ZM20.6586 20.6453C20.1444 20.6453 19.6302 20.5084 19.1219 20.2258L18.6077 20.9831C19.2534 21.3404 19.9423 21.5342 20.6586 21.5342V20.6453ZM22.5917 20.6453H20.6586V21.5342H22.5917V20.6453ZM23.5317 20.9991C23.4086 20.8862 23.2619 20.7966 23.1002 20.7356C22.9384 20.6745 22.7649 20.6433 22.5897 20.6436V21.5324C22.6839 21.5324 22.7703 21.5662 22.835 21.6249L23.5317 20.9991ZM25.3215 22.6311L23.5317 20.9991L22.835 21.6249L24.6248 23.2569L25.3215 22.6311ZM24.4816 21.5982V22.944H25.4628V21.5982H24.4816ZM25.7572 20.3876C25.4136 20.4013 25.0891 20.5347 24.8514 20.7599C24.6137 20.9852 24.4812 21.2849 24.4816 21.5964H25.4628C25.4627 21.5143 25.4975 21.4352 25.56 21.3756C25.6225 21.3161 25.7078 21.2806 25.7984 21.2764L25.7611 20.3876H25.7572ZM29.3427 16.5156C29.3427 18.7556 27.392 20.3324 25.7611 20.3876L25.7984 21.2764C28.0023 21.2018 30.324 19.1964 30.324 16.5156H29.3427ZM27.1153 12.9938C28.4419 13.5751 29.3427 14.944 29.3427 16.5138H30.324C30.324 14.6542 29.2564 12.944 27.5431 12.1938L27.1153 12.9938ZM27.6118 11.024L26.8857 12.4018L27.7727 12.784L28.4989 11.4062L27.6118 11.024ZM32 16.5156C32 14.0622 30.5536 11.8169 28.2692 10.8142L27.8414 11.6142C29.751 12.4516 31.0187 14.3644 31.0187 16.5156H32ZM26.7444 22.7093C29.7039 22.1653 32 19.4951 32 16.5156H31.0187C31.0187 19.1147 29.0072 21.3867 26.5481 21.8382L26.7444 22.7093ZM27.1369 24.7893V22.2738H26.1556V24.7911L27.1369 24.7893ZM26.3185 25.9076C26.5616 25.8157 26.7691 25.6606 26.9148 25.4619C27.0604 25.2631 27.1377 25.0279 27.1369 24.7893L26.1556 24.7911C26.1556 24.9244 26.0693 25.04 25.9437 25.0862L26.3165 25.9076H26.3185ZM25.8082 26C25.9834 26.0003 26.1569 25.9689 26.3185 25.9076L25.9417 25.0862C25.9002 25.1025 25.8554 25.111 25.8102 25.1111V26H25.8082ZM7.67846 11.0258H17.6814V10.1369H7.67846V11.0258ZM7.1898 9.82044L7.18783 10.5813H8.17106V9.82222L7.1898 9.82044ZM17.6834 9.376L7.67846 9.37778V10.2649H17.6814V9.37778L17.6834 9.376ZM18.174 10.5813V9.82222H17.1908V10.5831L18.1721 10.5813H18.174ZM17.6834 7.808H7.67846V8.69689H17.6814V7.808H17.6834ZM17.1908 7.48622V8.25067H18.1721V7.48622H17.1908ZM7.67846 7.93067H17.6814V7.04178H7.67846V7.93067ZM8.16909 8.25067V7.48622H7.18783V8.25067H8.16909ZM7.67846 13.3564H12.6809V12.4676H7.67846V13.3564ZM7.18783 12.1511V12.912H8.16909V12.1511H7.18783ZM12.6809 11.7067H7.67846V12.5938H12.6809V11.7067ZM13.1716 12.912V12.1511H12.1903V12.9138L13.1716 12.9156V12.912Z" fill="currentColor"/>
</svg>
