<svg preserveAspectRatio="xMinYMin meet" viewBox="0 0 32 32" fill="none" xmlns="http://www.w3.org/2000/svg">
<rect width="32" height="32" fill="none"/>
<rect x="-315" y="-3362" width="4827" height="3613" rx="2" fill="none"/>
<rect x="-314.5" y="-3361.5" width="4826" height="3612" rx="1.5" stroke="white" stroke-opacity="0.1"/>
<rect x="-205.5" y="-81.5" width="263.179" height="257" rx="4.5" stroke="currentColor" stroke-dasharray="10 5"/>
<path d="M23.9289 26.5671H8.07111C7.37187 26.5667 6.70137 26.2888 6.20676 25.7945C5.71215 25.3003 5.43383 24.6299 5.43289 23.9307V14.2578H6.57423V23.9289C6.57517 24.3255 6.73323 24.7055 7.0138 24.9857C7.29437 25.2659 7.67457 25.4236 8.07111 25.424H23.9289C24.3254 25.4236 24.7056 25.2659 24.9862 24.9857C25.2668 24.7055 25.4248 24.3255 25.4258 23.9289V14.2578H26.5671V23.9289C26.5662 24.6282 26.2879 25.2985 25.7933 25.7928C25.2986 26.287 24.6281 26.5649 23.9289 26.5654V26.5671Z" fill="currentColor" stroke="currentColor" stroke-width="0.5"/>
<path d="M25.9964 11.7902H6.00356C5.9287 11.7904 5.85453 11.7759 5.78531 11.7474C5.71608 11.7189 5.65316 11.6771 5.60014 11.6242C5.54713 11.5714 5.50507 11.5086 5.47637 11.4394C5.44766 11.3703 5.43289 11.2962 5.43289 11.2213V8.07108C5.43336 7.37153 5.71147 6.70076 6.20613 6.2061C6.70079 5.71144 7.37156 5.43333 8.07111 5.43286H23.9289C24.6283 5.4338 25.2988 5.71206 25.7934 6.20662C26.2879 6.70118 26.5662 7.37167 26.5671 8.07108V11.2177C26.5673 11.2926 26.5528 11.3668 26.5243 11.436C26.4958 11.5052 26.454 11.5682 26.4011 11.6212C26.3483 11.6742 26.2855 11.7162 26.2163 11.7449C26.1472 11.7736 26.0731 11.7884 25.9982 11.7884L25.9964 11.7902ZM6.57423 10.6489H25.4258V8.07108C25.4248 7.67437 25.2668 7.29418 24.9863 7.01366C24.7058 6.73314 24.3256 6.57513 23.9289 6.57419H8.07111C7.67426 6.57466 7.29379 6.73252 7.01317 7.01314C6.73255 7.29376 6.5747 7.67423 6.57423 8.07108V10.6489Z" fill="currentColor" stroke="currentColor" stroke-width="0.5"/>
</svg>
