<svg preserveAspectRatio="xMinYMin meet" viewBox="0 0 32 32" fill="none" xmlns="http://www.w3.org/2000/svg">
<rect width="32" height="32" fill="none"/>
<rect x="-129" y="-3362" width="4827" height="3613" rx="2" fill="none"/>
<rect x="-128.5" y="-3361.5" width="4826" height="3612" rx="1.5" stroke="currentColor" stroke-opacity="0.1"/>
<rect x="-19.5" y="-81.5" width="263.179" height="257" rx="4.5" stroke="currentColor" stroke-dasharray="10 5"/>
<path d="M9.35287 12.5867C9.19859 12.5867 9.04973 12.5297 8.93489 12.4267C8.82004 12.3236 8.74731 12.1818 8.73065 12.0284L8.16354 6.87999C8.14558 6.71523 8.1937 6.55008 8.29735 6.42077C8.401 6.29145 8.55172 6.20854 8.71643 6.19021L22.2524 4.69688C22.3887 4.67964 22.5268 4.70976 22.6435 4.78221L26.3627 7.00976C26.4459 7.05975 26.5164 7.12842 26.5685 7.21035C26.6206 7.29227 26.6529 7.3852 26.6629 7.48178C26.6729 7.57836 26.6603 7.67595 26.6261 7.76681C26.5919 7.85768 26.537 7.93933 26.4658 8.00532L23.3138 10.928C23.2157 11.0187 23.091 11.0754 22.9582 11.0898L9.42043 12.5831C9.398 12.5856 9.37544 12.5867 9.35287 12.5867ZM9.47732 7.3671L9.90754 11.2675L22.6133 9.86843L25.0027 7.6551L22.1813 5.96621L9.47732 7.3671Z" fill="currentColor" stroke="currentColor" stroke-width="0.5"/>
<path d="M11.2178 20.0835C11.1015 20.0834 10.9876 20.0508 10.8889 19.9892L7.19468 17.7243C7.11184 17.6735 7.04199 17.604 6.99067 17.5215C6.93934 17.439 6.90794 17.3456 6.89897 17.2488C6.89 17.152 6.9037 17.0545 6.93898 16.9639C6.97426 16.8733 7.03016 16.7922 7.10223 16.727L10.2845 13.8399C10.3841 13.75 10.51 13.6945 10.6436 13.6817L24.1938 12.3359C24.276 12.3261 24.3594 12.3329 24.4389 12.3561C24.5184 12.3793 24.5924 12.4182 24.6565 12.4707C24.7206 12.5232 24.7734 12.588 24.8118 12.6614C24.8502 12.7348 24.8734 12.8151 24.88 12.8977L25.392 18.0515C25.4001 18.1333 25.392 18.2159 25.3681 18.2946C25.3443 18.3733 25.3052 18.4465 25.253 18.5101C25.2008 18.5737 25.1366 18.6263 25.0641 18.6651C24.9915 18.7038 24.9121 18.7279 24.8302 18.7359L11.28 20.0817L11.2178 20.0852V20.0835ZM8.56179 17.0932L11.3653 18.8123L24.0836 17.5501L23.696 13.6426L10.9725 14.9048L8.56179 17.0932Z" fill="currentColor" stroke="currentColor" stroke-width="0.5"/>
<path d="M17.376 21.3601H16.1227V28.6792H17.376V21.3601Z" fill="currentColor" stroke="currentColor" stroke-width="0.5"/>
</svg>
