<svg preserveAspectRatio="xMinYMin meet" viewBox="0 0 32 32" fill="none" xmlns="http://www.w3.org/2000/svg">
<rect width="32" height="32" fill="none"/>
<rect x="-191" y="-3300" width="4827" height="3613" rx="2" fill="none"/>
<rect x="-190.5" y="-3299.5" width="4826" height="3612" rx="1.5" stroke="currentColor" stroke-opacity="0.1"/>
<rect x="-81.5" y="-19.5" width="263.179" height="257" rx="4.5" stroke="currentColor" stroke-dasharray="10 5"/>
<path d="M21.1946 21.5679H20.6258V20.5279C20.6317 20.3631 20.6013 20.1991 20.5368 20.0473C20.4723 19.8955 20.3752 19.7598 20.2524 19.6497C19.9732 19.5179 19.6671 19.4531 19.3585 19.4605C19.0498 19.4679 18.7472 19.5473 18.4746 19.6924L18.2844 19.1537C18.6435 18.9706 19.0421 18.8785 19.4451 18.8856C19.8481 18.8928 20.2432 18.9989 20.5955 19.1946C20.7912 19.3593 20.9469 19.5664 21.0507 19.8002C21.1545 20.034 21.2037 20.2883 21.1946 20.5439V21.5679Z" fill="currentColor"/>
<path d="M19.5662 25.0045C18.7837 24.999 18.0194 24.7677 17.3653 24.3383C16.7111 23.9089 16.1949 23.2997 15.8786 22.584C15.5624 21.8682 15.4597 21.0763 15.5827 20.3035C15.7058 19.5308 16.0494 18.81 16.5723 18.2278C17.0952 17.6457 17.7751 17.2269 18.5303 17.022C19.2855 16.817 20.0838 16.8345 20.8293 17.0724C21.5748 17.3103 22.2357 17.7584 22.7326 18.3629C23.2295 18.9674 23.5412 19.7026 23.6302 20.48C23.6768 20.8235 23.6515 21.173 23.556 21.5062C23.4605 21.8395 23.2969 22.1493 23.0756 22.416C22.9207 22.5909 22.7301 22.7304 22.5166 22.8252C22.3031 22.92 22.0718 22.9678 21.8382 22.9654C21.6747 22.9728 21.5114 22.9453 21.3593 22.8846C21.2073 22.8239 21.0699 22.7314 20.9564 22.6134C20.8842 22.5331 20.8232 22.4434 20.7751 22.3467C20.3356 22.7304 19.7761 22.9492 19.1929 22.9654H19.1822C19.0109 22.9784 18.8387 22.9569 18.6758 22.9021C18.5129 22.8474 18.3627 22.7605 18.2341 22.6466C18.1054 22.5326 18.0009 22.3941 17.9268 22.239C17.8527 22.084 17.8105 21.9157 17.8027 21.744C17.7691 21.554 17.785 21.3585 17.8489 21.1764C17.9127 20.9942 18.0223 20.8316 18.1671 20.704C18.9671 20.0231 20.7804 20.5031 20.9867 20.56L20.832 21.1094C20.1742 20.9245 18.9653 20.768 18.5369 21.1378C18.4625 21.2049 18.4077 21.291 18.3782 21.3867C18.3488 21.4825 18.3459 21.5845 18.3698 21.6818C18.3708 21.7836 18.3933 21.884 18.4357 21.9765C18.4782 22.069 18.5396 22.1515 18.6162 22.2186C18.6927 22.2857 18.7825 22.3359 18.8797 22.3659C18.9769 22.396 19.0794 22.4052 19.1804 22.3929H19.1893C19.8756 22.3894 20.592 21.9023 20.6258 21.5396C20.633 21.4651 20.6694 21.3966 20.727 21.3489C20.7847 21.3013 20.8589 21.2784 20.9333 21.2854C21.0084 21.2917 21.0778 21.3274 21.1268 21.3846C21.1757 21.4418 21.2001 21.516 21.1947 21.5911C21.1762 21.8191 21.2413 22.0459 21.3778 22.2294C21.4381 22.2886 21.5104 22.3341 21.5898 22.3629C21.6693 22.3918 21.754 22.4032 21.8382 22.3965C21.9924 22.3975 22.145 22.3656 22.2857 22.3027C22.4265 22.2398 22.5521 22.1475 22.6542 22.032C22.8197 21.824 22.9412 21.5845 23.0115 21.3281C23.0818 21.0718 23.0993 20.8038 23.0631 20.5405C22.9768 19.7752 22.6405 19.0597 22.1065 18.5047C21.5725 17.9498 20.8704 17.5864 20.109 17.4707C19.3476 17.355 18.5693 17.4935 17.8945 17.8648C17.2198 18.2361 16.6863 18.8195 16.3765 19.5246C16.0667 20.2297 15.9981 21.0173 16.1811 21.7654C16.3641 22.5135 16.7886 23.1804 17.3888 23.6629C17.9891 24.1454 18.7317 24.4166 19.5016 24.4344C20.2716 24.4523 21.026 24.2159 21.648 23.7618L21.9822 24.2205C21.2803 24.7326 20.4351 25.0072 19.5662 25.0045Z" fill="currentColor"/>
<path d="M6.49243 22.7732L5.73865 21.9163L13.92 14.7163L14.6738 15.5732L6.49243 22.7732Z" fill="currentColor" stroke="currentColor" stroke-width="0.5"/>
<path d="M13.0631 22.9156H6.11558C5.96468 22.9147 5.82026 22.8542 5.71372 22.7473C5.60719 22.6404 5.54716 22.4958 5.54669 22.3449V11.8347H6.68625V21.7743H13.0631V22.9156Z" fill="currentColor" stroke="currentColor" stroke-width="0.5"/>
<path d="M26.6791 22.9155H25.5396V8.84798L17.3316 16.2382C16.9682 16.5585 16.5004 16.7353 16.016 16.7353C15.5316 16.7353 15.0638 16.5585 14.7005 16.2382L5.51112 7.99287C5.42514 7.91578 5.36458 7.81443 5.33742 7.7022C5.31026 7.58997 5.31779 7.47214 5.35901 7.36427C5.40023 7.25641 5.4732 7.16359 5.56828 7.09807C5.66337 7.03255 5.77609 6.99742 5.89156 6.99731H21.3636V8.13865H7.38134L15.4631 15.392C15.6166 15.525 15.8129 15.5981 16.016 15.5981C16.2191 15.5981 16.4154 15.525 16.5689 15.392L25.728 7.14487C25.8097 7.07076 25.9112 7.02199 26.0201 7.00452C26.129 6.98704 26.2407 7.00161 26.3415 7.04645C26.4422 7.09128 26.5278 7.16445 26.5878 7.25705C26.6477 7.34964 26.6795 7.45767 26.6791 7.56798V22.9155Z" fill="currentColor" stroke="currentColor" stroke-width="0.5"/>
</svg>
