<svg preserveAspectRatio="xMinYMin meet" viewBox="0 0 32 32" fill="none" xmlns="http://www.w3.org/2000/svg">
<rect width="32" height="32" fill="none"/>
<rect x="-129" y="-3486" width="4827" height="3613" rx="2" fill="none"/>
<rect x="-128.5" y="-3485.5" width="4826" height="3612" rx="1.5" stroke="currentColor" stroke-opacity="0.1"/>
<rect x="-19.5" y="-205.5" width="263.179" height="257" rx="4.5" stroke="currentColor" stroke-dasharray="10 5"/>
<path d="M16 29.3085C15.8936 29.308 15.7889 29.2814 15.6952 29.2308C15.6016 29.1803 15.5218 29.1074 15.4631 29.0187C15.1218 28.4978 7.11108 16.2756 7.11108 11.5822C7.11108 9.22477 8.04759 6.96384 9.71458 5.29685C11.3816 3.62986 13.6425 2.69336 16 2.69336C18.3575 2.69336 20.6184 3.62986 22.2854 5.29685C23.9524 6.96384 24.8889 9.22477 24.8889 11.5822C24.8889 16.2756 16.8782 28.4996 16.5369 29.0187C16.4783 29.1076 16.3986 29.1807 16.3049 29.2312C16.2112 29.2818 16.1065 29.3084 16 29.3085ZM16 3.98047C13.9844 3.98235 12.052 4.78386 10.6268 6.20906C9.20158 7.63426 8.40008 9.56671 8.3982 11.5822C8.3982 15.2338 14.1849 24.6205 16 27.4756C17.8151 24.6205 23.6018 15.2338 23.6018 11.5822C23.5999 9.56671 22.7984 7.63426 21.3732 6.20906C19.948 4.78386 18.0155 3.98235 16 3.98047Z" fill="currentColor" stroke="currentColor" stroke-width="0.5"/>
<path d="M16 13.888C15.5417 13.888 15.0879 13.7977 14.6645 13.6224C14.2411 13.447 13.8564 13.1899 13.5323 12.8659C13.2083 12.5418 12.9512 12.1571 12.7758 11.7337C12.6005 11.3103 12.5102 10.8565 12.5102 10.3982C12.5102 9.93994 12.6005 9.48614 12.7758 9.06275C12.9512 8.63935 13.2083 8.25464 13.5323 7.93058C13.8564 7.60652 14.2411 7.34947 14.6645 7.17409C15.0879 6.99871 15.5417 6.90845 16 6.90845C16.9255 6.90845 17.8132 7.27612 18.4676 7.93058C19.1221 8.58504 19.4897 9.47268 19.4897 10.3982C19.4897 11.3238 19.1221 12.2114 18.4676 12.8659C17.8132 13.5203 16.9255 13.888 16 13.888ZM16 8.19556C15.4158 8.19556 14.8555 8.42762 14.4424 8.8407C14.0294 9.25378 13.7973 9.81404 13.7973 10.3982C13.7973 10.9824 14.0294 11.5427 14.4424 11.9557C14.8555 12.3688 15.4158 12.6009 16 12.6009C16.5842 12.6009 17.1444 12.3688 17.5575 11.9557C17.9706 11.5427 18.2026 10.9824 18.2026 10.3982C18.2026 9.81404 17.9706 9.25378 17.5575 8.8407C17.1444 8.42762 16.5842 8.19556 16 8.19556Z" fill="currentColor" stroke="currentColor" stroke-width="0.5"/>
</svg>
