<svg preserveAspectRatio="xMinYMin meet" viewBox="0 0 32 32" fill="none" xmlns="http://www.w3.org/2000/svg">
<rect width="32" height="32" fill="none"/>
<rect x="-191" y="-3362" width="4827" height="3613" rx="2" fill="none"/>
<rect x="-190.5" y="-3361.5" width="4826" height="3612" rx="1.5" stroke="currentColor" stroke-opacity="0.1"/>
<rect x="-81.5" y="-81.5" width="263.179" height="257" rx="4.5" stroke="currentColor" stroke-dasharray="10 5"/>
<path fill-rule="evenodd" clip-rule="evenodd" d="M12.4466 9.46259C12.4466 11.3213 13.6973 12.9159 15.424 13.4226C15.119 14.0508 14.9786 14.7462 15.0158 15.4436C15.053 16.1409 15.2666 16.8174 15.6366 17.4097C16.0066 18.002 16.5209 18.4906 17.1313 18.8298C17.7418 19.1691 18.4283 19.3478 19.1266 19.3493C20.2193 19.3457 21.2659 18.909 22.037 18.1349C22.8081 17.3608 23.2407 16.3125 23.24 15.2199C23.2397 14.3284 22.9514 13.4609 22.418 12.7466C21.8846 12.0323 21.1347 11.5094 20.28 11.2559C20.5333 10.7013 20.6706 10.0799 20.6706 9.46259C20.6717 8.37032 20.2396 7.32222 19.469 6.54812C18.6984 5.77403 17.6522 5.33713 16.56 5.33325C14.2933 5.33325 12.448 7.18659 12.448 9.46259H12.4466ZM19.512 9.46259C19.512 10.0386 19.348 10.6186 19.0586 11.0906C18.5084 11.0996 17.9656 11.2195 17.4627 11.4431C16.9599 11.6667 16.5073 11.9894 16.132 12.3919C15.4313 12.2838 14.7921 11.9295 14.329 11.3927C13.866 10.8558 13.6094 10.1715 13.6053 9.46259C13.6039 8.67777 13.9142 7.92453 14.468 7.36846C15.0219 6.81239 15.7738 6.49902 16.5586 6.49725C18.1866 6.49725 19.512 7.82659 19.512 9.46259ZM19.1253 12.2546C18.3408 12.2571 17.5894 12.5707 17.036 13.1266C16.4825 13.6826 16.1722 14.4354 16.1733 15.2199C16.1733 16.8559 17.496 18.1866 19.1266 18.1866C19.9114 18.1838 20.6629 17.8699 21.2166 17.3137C21.7702 16.7576 22.0807 16.0046 22.08 15.2199C22.0803 14.4354 21.7697 13.6828 21.2161 13.127C20.6625 12.5711 19.9111 12.2574 19.1266 12.2546H19.1253ZM14.952 21.4519L19.8346 22.8919C20.0306 22.9493 20.3066 23.2159 20.5653 23.4679C20.9066 23.7986 21.22 24.1039 21.2893 23.8679C21.3426 23.6826 21.368 23.4866 21.3586 23.2893L24.7413 21.7399C24.9493 21.6479 25.1253 21.6533 25.264 21.7519C25.424 21.8666 25.5253 22.0893 25.5053 22.2906C25.488 22.4653 25.3893 22.5933 25.2013 22.6773L20.036 25.0453C19.2413 25.4093 15.86 25.6253 12.228 23.9919C11.576 23.7039 10.7533 23.8573 10.024 24.0453V21.4133C12.2133 21.1159 14.328 21.2693 14.952 21.4519ZM10.024 20.2386C12.2773 19.9559 14.468 20.0986 15.2773 20.3346L20.1613 21.7746C20.4746 21.8679 20.7213 22.0226 20.908 22.2159L24.2613 20.6826C24.8453 20.4146 25.4546 20.4613 25.9373 20.8039C26.4346 21.1599 26.7186 21.7879 26.6573 22.4039C26.6026 22.9933 26.244 23.4799 25.684 23.7373L20.5173 26.1026C20.0706 26.3066 19.208 26.4626 18.0773 26.4626C16.3933 26.4626 14.1146 26.1159 11.7546 25.0546C11.3813 24.8839 10.5906 25.0946 10.024 25.2493V26.0853C10.024 26.4053 9.76531 26.6666 9.44398 26.6666H5.91198C5.83581 26.6664 5.76043 26.6512 5.69013 26.6219C5.61982 26.5926 5.55598 26.5497 5.50225 26.4958C5.44851 26.4418 5.40594 26.3777 5.37695 26.3073C5.34797 26.2369 5.33314 26.1614 5.33331 26.0853V19.8773C5.33331 19.5559 5.59331 19.2959 5.91198 19.2959H9.44531C9.76531 19.2959 10.024 19.5559 10.024 19.8773V20.2386ZM8.86398 25.5026H6.49331V20.4586H8.86665V25.5026H8.86398Z" fill="currentColor"/>
<path d="M15.424 13.424L15.724 13.5693L15.896 13.2147L15.5187 13.104L15.4253 13.424H15.424ZM20.2813 11.256L19.9773 11.1173L19.8173 11.4667L20.1867 11.576L20.28 11.256H20.2813ZM19.0573 11.0907L19.0627 11.424L19.2453 11.4213L19.3413 11.2653L19.0573 11.092V11.0907ZM16.132 12.392L16.0813 12.7213L16.2547 12.748L16.3747 12.62L16.132 12.3933V12.392ZM21.2893 23.868L21.6093 23.9627L21.2893 23.8693V23.868ZM21.3587 23.2893L21.22 22.9853L21.0147 23.0787L21.0253 23.3053L21.3587 23.2893ZM24.7413 21.74L24.6067 21.4347L24.6027 21.4373L24.7413 21.74ZM25.264 21.752L25.4587 21.48H25.456L25.264 21.752ZM25.2013 22.6773L25.064 22.3747L25.2013 22.6787V22.6773ZM10.024 24.0453H9.69067V24.4773L10.1067 24.3693L10.024 24.0453ZM10.024 21.4133L9.97867 21.0827L9.69067 21.1227V21.4133H10.024ZM10.024 20.24H9.69067V20.6173L10.064 20.5693L10.024 20.2387V20.24ZM20.1613 21.7747L20.2547 21.456L20.1613 21.776V21.7747ZM20.908 22.216L20.668 22.448L20.8333 22.6173L21.0467 22.52L20.908 22.216ZM25.684 23.7373L25.8213 24.0413L25.6827 23.7387L25.684 23.7373ZM11.7547 25.0547L11.6147 25.3573L11.6173 25.3587L11.7547 25.0547ZM10.024 25.2493L9.936 24.928L9.69067 24.9947V25.248L10.024 25.2493ZM6.492 25.5027H6.15867V25.836H6.492V25.5027ZM8.86533 25.5027V25.836H9.19867V25.5027H8.86533ZM6.492 20.4587V20.1253H6.15867V20.4587H6.492ZM8.86533 20.4587H9.19867V20.1253H8.86533V20.4587ZM15.5187 13.104C14.7312 12.8729 14.0393 12.3939 13.5458 11.7381C13.0524 11.0822 12.7838 10.2847 12.78 9.464H12.1133C12.117 10.4286 12.432 11.3662 13.0114 12.1374C13.5909 12.9086 14.4039 13.4721 15.3293 13.744L15.5187 13.104ZM15.348 15.22C15.348 14.628 15.4827 14.068 15.724 13.5693L15.124 13.2787C14.84 13.8653 14.6813 14.5253 14.6813 15.22H15.348ZM19.1267 19.016C18.1224 19.0128 17.1603 18.6114 16.4517 17.8997C15.743 17.188 15.3469 16.2243 15.348 15.22H14.6813C14.6803 16.4011 15.1466 17.5344 15.9803 18.3711C16.8139 19.2078 17.9455 19.6795 19.1267 19.6827V19.016ZM22.9067 15.22C22.9074 16.2242 22.5099 17.1877 21.8013 17.8993C21.0927 18.6109 20.1309 19.0125 19.1267 19.016V19.6827C20.3077 19.6791 21.4391 19.2073 22.2727 18.3707C23.1063 17.5341 23.574 16.401 23.5733 15.22H22.9067ZM20.1867 11.576C20.9721 11.8093 21.6612 12.29 22.1513 12.9466C22.6415 13.6033 22.9064 14.4006 22.9067 15.22H23.5733C23.5731 14.2566 23.2616 13.319 22.6852 12.547C22.1088 11.775 21.2984 11.2099 20.3747 10.936L20.1867 11.576ZM20.3373 9.46267C20.3373 10.032 20.2107 10.6053 19.9773 11.1173L20.584 11.3933C20.856 10.796 21.004 10.128 21.004 9.46267H20.3373ZM16.56 5.66667C17.5641 5.6702 18.5258 6.07182 19.2341 6.78344C19.9425 7.49506 20.3384 8.45858 20.3373 9.46267H21.004C21.0051 8.28177 20.5389 7.14868 19.7056 6.31203C18.8722 5.47539 17.7409 5.00353 16.56 5V5.66667ZM12.78 9.464C12.7789 8.45991 13.1762 7.49506 13.8845 6.78344C14.5929 6.07182 15.5546 5.6702 16.5587 5.66667V5C15.3778 5.00353 14.2465 5.47539 13.4131 6.31203C12.5797 7.14868 12.1123 8.2831 12.1133 9.464H12.78ZM19.3413 11.2653C19.6708 10.7218 19.8451 10.0983 19.8453 9.46267H19.1787C19.1787 9.97867 19.032 10.4973 18.7733 10.916L19.3413 11.2653ZM16.3747 12.62C16.7192 12.2504 17.1359 11.9539 17.5976 11.7484C18.0592 11.5429 18.5575 11.4326 19.0627 11.424L19.052 10.7573C18.4574 10.7673 17.8709 10.897 17.3275 11.1387C16.7841 11.3804 16.295 11.7291 15.8893 12.164L16.3747 12.62ZM13.272 9.46267C13.272 11.0987 14.4853 12.472 16.0813 12.7213L16.184 12.0627C15.5618 11.9669 14.994 11.6527 14.5825 11.1762C14.171 10.6997 13.9428 10.0922 13.9387 9.46267H13.272ZM16.5587 6.164C15.6855 6.16577 14.8487 6.51425 14.2324 7.13284C13.616 7.75142 13.2706 8.58945 13.272 9.46267H13.9387C13.9373 8.76626 14.2124 8.0978 14.7038 7.60424C15.1951 7.11068 15.8623 6.83243 16.5587 6.83067V6.164ZM19.8453 9.46267C19.8464 8.58956 19.5008 7.75173 18.8846 7.13323C18.2683 6.51472 17.4318 6.16612 16.5587 6.164V6.83067C18.0013 6.83067 19.1787 8.00933 19.1787 9.46267H19.8453ZM16.5067 15.22C16.5053 14.5236 16.7804 13.8551 17.2718 13.3616C17.7631 12.868 18.4303 12.5898 19.1267 12.588V11.9213C18.2536 11.9235 17.417 12.2721 16.8007 12.8906C16.1845 13.5091 15.8389 14.3469 15.84 15.22H16.5067ZM19.1267 17.8533C18.4301 17.8512 17.7629 17.5727 17.2717 17.0789C16.7804 16.5851 16.5053 15.9165 16.5067 15.22H15.84C15.8386 16.0933 16.184 16.9315 16.8003 17.5503C17.4166 18.1691 18.2533 18.5179 19.1267 18.52V17.8533ZM21.7467 15.22C21.7467 16.6733 20.5693 17.8533 19.1267 17.8533V18.52C20.94 18.52 22.4133 17.04 22.4133 15.22H21.7467ZM19.1267 12.5867C20.5693 12.5867 21.7467 13.7667 21.7467 15.2187H22.4133C22.4137 14.3458 22.0679 13.5084 21.4518 12.89C20.8357 12.2716 19.9996 11.9228 19.1267 11.92V12.5867ZM19.9293 22.5707L15.0453 21.1307L14.856 21.7707L19.74 23.2107L19.9293 22.5707ZM20.7973 23.228C20.6666 23.0971 20.531 22.9712 20.3907 22.8507C20.2567 22.728 20.1 22.6329 19.9293 22.5707L19.74 23.2107C19.7667 23.2173 19.8373 23.2573 19.9627 23.3613C20.0773 23.4573 20.2027 23.5773 20.3333 23.7053L20.7973 23.228ZM20.9707 23.7733C20.9833 23.7357 21.0064 23.7024 21.0373 23.6773C21.0827 23.6386 21.1404 23.6173 21.2 23.6173C21.2613 23.6173 21.276 23.644 21.2173 23.604C21.0686 23.4888 20.9282 23.3632 20.7973 23.228L20.3333 23.7053C20.4947 23.8627 20.6827 24.0467 20.8427 24.1547C20.9435 24.2301 21.0638 24.275 21.1893 24.284C21.2916 24.2865 21.3912 24.2514 21.4693 24.1853C21.5368 24.1259 21.5855 24.0494 21.6093 23.9627L20.9707 23.7733ZM21.024 23.3027C21.032 23.4627 21.0133 23.624 20.9707 23.7733L21.6107 23.96C21.6747 23.74 21.7027 23.5067 21.6907 23.272L21.024 23.3027ZM24.6027 21.4373L21.22 22.9853L21.4973 23.5907L24.88 22.0413L24.6027 21.4373ZM25.456 21.4773C25.1933 21.292 24.8853 21.312 24.6067 21.4347L24.876 22.044C25.0133 21.9827 25.0587 22.012 25.0733 22.0227L25.456 21.4773ZM25.8373 22.3227C25.8512 22.1614 25.8237 21.9993 25.7574 21.8516C25.6911 21.7039 25.5883 21.5756 25.4587 21.4787L25.0707 22.0213C25.1049 22.05 25.132 22.0863 25.1498 22.1272C25.1676 22.1682 25.1757 22.2141 25.1733 22.2587L25.8373 22.3227ZM25.3387 22.9813C25.6147 22.856 25.8053 22.6347 25.8373 22.3227L25.1733 22.2587C25.1707 22.2933 25.164 22.3293 25.064 22.3747L25.3387 22.9813ZM20.1747 25.3467L25.34 22.98L25.064 22.3747L19.896 24.74L20.1747 25.3467ZM12.0907 24.2933C13.9467 25.1293 15.7387 25.4907 17.1707 25.5987C17.8867 25.652 18.5173 25.6427 19.0227 25.5947C19.5187 25.548 19.924 25.4613 20.1747 25.3467L19.896 24.74C19.7493 24.8067 19.4347 24.8853 18.96 24.9307C18.4947 24.9747 17.9027 24.984 17.22 24.9333C15.5416 24.7997 13.8988 24.3789 12.364 23.6867L12.0907 24.2933ZM10.1067 24.368C10.8467 24.176 11.56 24.0613 12.0933 24.2947L12.3627 23.6853C11.592 23.3453 10.66 23.536 9.94 23.7227L10.1067 24.368ZM9.69067 21.4133V24.0453H10.3573V21.4133H9.69067ZM15.044 21.1307C14.688 21.0267 13.968 20.9427 13.084 20.9173C12.188 20.8933 11.0947 20.9307 9.97867 21.0813L10.068 21.7413C11.0614 21.6102 12.0637 21.558 13.0653 21.5853C13.9413 21.608 14.588 21.692 14.856 21.7707L15.044 21.1307ZM10.0653 20.568C11.172 20.4293 12.2653 20.3947 13.1813 20.424C14.104 20.4533 14.82 20.548 15.1827 20.6533L15.3693 20.0133C14.924 19.884 14.14 19.7867 13.2027 19.7573C12.256 19.7267 11.128 19.7627 9.98267 19.9067L10.0653 20.568ZM15.1813 20.6533L20.0667 22.0933L20.256 21.4547L15.3707 20.0147L15.1813 20.6533ZM20.0667 22.0933C20.3267 22.1707 20.524 22.296 20.6693 22.4467L21.1493 21.9827C20.9026 21.7319 20.5947 21.5499 20.256 21.4547L20.0667 22.0933ZM21.048 22.5187L24.4 20.984L24.1227 20.3773L20.7707 21.912L21.048 22.5187ZM24.4 20.984C24.8853 20.7613 25.368 20.8067 25.744 21.0747L26.1307 20.5333C25.544 20.1147 24.804 20.0653 24.1227 20.3773L24.4 20.984ZM25.7427 21.0747C26.1427 21.36 26.3747 21.872 26.3267 22.3707L26.9893 22.4347C27.0229 22.0704 26.9614 21.7036 26.8109 21.3701C26.6605 21.0366 26.4261 20.7492 26.1307 20.5333L25.744 21.0747H25.7427ZM26.3267 22.3707C26.2827 22.836 26.004 23.2227 25.544 23.4333L25.8227 24.04C26.4853 23.7347 26.9227 23.1507 26.9893 22.4347L26.3267 22.3707ZM25.544 23.4333L20.3787 25.8L20.656 26.404L25.8213 24.0413L25.544 23.4333ZM20.3787 25.8C19.9973 25.9733 19.192 26.128 18.0773 26.128V26.7947C19.224 26.7947 20.144 26.6387 20.656 26.404L20.3787 25.8ZM18.0773 26.128C16.436 26.128 14.2053 25.7893 11.8907 24.7493L11.6173 25.3587C14.0253 26.4413 16.3507 26.7947 18.0773 26.7947V26.128ZM11.8933 24.752C11.741 24.6881 11.5772 24.6563 11.412 24.6587C11.2435 24.6586 11.0754 24.6728 10.9093 24.7013C10.5733 24.7547 10.2173 24.8507 9.936 24.928L10.1107 25.5707C10.3973 25.4933 10.72 25.4067 11.0147 25.3587C11.1424 25.3366 11.2717 25.3254 11.4013 25.3253C11.4738 25.3222 11.5463 25.3331 11.6147 25.3573L11.8933 24.752ZM9.69067 25.248V26.0853H10.3573V25.2493L9.69067 25.248ZM9.69067 26.0853C9.69084 26.1178 9.68459 26.1501 9.67228 26.1801C9.65996 26.2102 9.64182 26.2376 9.61889 26.2606C9.59597 26.2837 9.56872 26.302 9.5387 26.3144C9.50869 26.3269 9.47651 26.3333 9.444 26.3333V27C9.95067 27 10.3573 26.588 10.3573 26.0853H9.69067ZM9.444 26.3333H5.912V27H9.444V26.3333ZM5.912 26.3333C5.87961 26.3332 5.84757 26.3266 5.81771 26.314C5.78785 26.3015 5.76075 26.2832 5.73797 26.2601C5.71519 26.2371 5.69717 26.2098 5.68493 26.1798C5.6727 26.1498 5.66649 26.1177 5.66667 26.0853H5C5 26.5893 5.408 27 5.912 27V26.3333ZM5.66667 26.0853V19.8773H5V26.0853H5.66667ZM5.66667 19.8773C5.66667 19.7387 5.77867 19.6293 5.912 19.6293V18.9627C5.79206 18.9628 5.67333 18.9866 5.56258 19.0327C5.45184 19.0788 5.35125 19.1462 5.26657 19.2311C5.18188 19.3161 5.11475 19.4168 5.06901 19.5277C5.02328 19.6386 4.99983 19.7574 5 19.8773H5.66667ZM5.912 19.6293H9.44533V18.9627H5.912V19.6293ZM9.44533 19.6293C9.57867 19.6293 9.69067 19.7387 9.69067 19.8773H10.3573C10.3575 19.7573 10.334 19.6384 10.2882 19.5274C10.2424 19.4164 10.1751 19.3156 10.0903 19.2306C10.0055 19.1457 9.90472 19.0783 9.79383 19.0323C9.68293 18.9863 9.56539 18.9627 9.44533 18.9627V19.6293ZM9.69067 19.8773V20.2387H10.3573V19.8773H9.69067ZM6.492 25.836H8.86533V25.1693H6.492V25.836ZM6.15867 20.4587V25.5027H6.82533V20.4587H6.15867ZM8.86533 20.1253H6.492V20.792H8.86533V20.1253ZM9.19867 25.5027V20.4587H8.532V25.5027H9.19867Z" fill="currentColor"/>
</svg>
