<svg preserveAspectRatio="xMinYMin meet" viewBox="0 0 32 32" fill="none" xmlns="http://www.w3.org/2000/svg">
<rect width="32" height="32" fill="none"/>
<rect x="-129" y="-3300" width="4827" height="3613" rx="2" fill="none"/>
<rect x="-128.5" y="-3299.5" width="4826" height="3612" rx="1.5" stroke="currentColor" stroke-opacity="0.1"/>
<rect x="-19.5" y="-19.5" width="263.179" height="257" rx="4.5" stroke="currentColor" stroke-dasharray="10 5"/>
<path d="M21.2498 26.8943C18.704 26.8943 15.6284 24.9654 11.5786 20.8374C7.55553 16.7289 5.70486 13.6356 5.75464 11.0916C5.84501 10.1875 6.12435 9.3125 6.57455 8.52328C7.02474 7.73405 7.63575 7.04824 8.36797 6.51027L8.85331 6.04805C9.07228 5.84626 9.35978 5.73527 9.65754 5.73758C9.9553 5.73989 10.241 5.85533 10.4569 6.06049L15.2391 10.9369C15.4487 11.1514 15.5649 11.44 15.5622 11.7399C15.5595 12.0397 15.4382 12.3263 15.2249 12.5369L13.7635 13.9734C14.3952 15.245 15.2782 16.3754 16.3591 17.2961C17.6213 18.4587 18.3911 18.7716 18.5938 18.7129C18.6169 18.6632 20.256 17.0312 20.256 17.0312L21.1804 17.9592C21.1804 17.9592 19.4844 19.6481 19.3938 19.7316C19.3156 19.7991 19.2296 19.857 19.1378 19.9041C17.4915 20.7432 14.3555 17.2143 13.616 16.2169C12.4924 14.7112 12.2346 13.6783 12.8284 13.0525L14.1795 11.7281L9.6462 7.10583L9.26753 7.46316C8.66405 7.88349 8.15586 8.42619 7.77605 9.05595C7.39623 9.68571 7.15331 10.3884 7.06308 11.1183C7.02397 13.2552 8.80531 16.1352 12.5155 19.9183C16.2844 23.7636 19.1289 25.6534 21.3066 25.5841C22.0793 25.4781 22.8207 25.2096 23.4819 24.7962C24.1432 24.3828 24.7094 23.834 25.1431 23.1858L25.2889 23.0294L22.7591 20.3592L23.712 19.4578L26.3466 22.2418C26.5502 22.4507 26.6649 22.7303 26.6669 23.0219C26.6689 23.3135 26.558 23.5946 26.3573 23.8063L26.1066 24.0747C25.5584 24.8597 24.8478 25.5175 24.023 26.0037C23.1982 26.4899 22.2785 26.793 21.3262 26.8925L21.2498 26.8943Z" fill="currentColor"/>
<path d="M25.3991 23.1467L25.4044 23.1521M25.3991 22.9085V22.9103M21.2498 26.8943C18.704 26.8943 15.6284 24.9654 11.5786 20.8374C7.55553 16.7289 5.70486 13.6356 5.75464 11.0916C5.84501 10.1875 6.12435 9.3125 6.57455 8.52328C7.02474 7.73405 7.63575 7.04824 8.36797 6.51027L8.85331 6.04805C9.07228 5.84626 9.35978 5.73527 9.65754 5.73758C9.9553 5.73989 10.241 5.85533 10.4569 6.06049L15.2391 10.9369C15.4487 11.1514 15.5649 11.44 15.5622 11.7399C15.5595 12.0397 15.4382 12.3263 15.2249 12.5369L13.7635 13.9734C14.3952 15.245 15.2782 16.3754 16.3591 17.2961C17.6213 18.4587 18.3911 18.7716 18.5938 18.7129C18.6169 18.6632 20.256 17.0312 20.256 17.0312L21.1804 17.9592C21.1804 17.9592 19.4844 19.6481 19.3938 19.7316C19.3156 19.7991 19.2296 19.857 19.1378 19.9041C17.4915 20.7432 14.3555 17.2143 13.616 16.2169C12.4924 14.7112 12.2346 13.6783 12.8284 13.0525L14.1795 11.7281L9.6462 7.10583L9.26753 7.46316C8.66405 7.88349 8.15586 8.42619 7.77605 9.05595C7.39623 9.68571 7.15331 10.3884 7.06308 11.1183C7.02397 13.2552 8.80531 16.1352 12.5155 19.9183C16.2844 23.7636 19.1289 25.6534 21.3066 25.5841C22.0793 25.4781 22.8207 25.2096 23.4819 24.7962C24.1432 24.3828 24.7094 23.834 25.1431 23.1858L25.2889 23.0294L22.7591 20.3592L23.712 19.4578L26.3466 22.2418C26.5502 22.4507 26.6649 22.7303 26.6669 23.0219C26.6689 23.3135 26.558 23.5946 26.3573 23.8063L26.1066 24.0747C25.5584 24.8597 24.8478 25.5175 24.023 26.0037C23.1982 26.4899 22.2784 26.793 21.3262 26.8925L21.2498 26.8943Z" stroke="currentColor" stroke-width="0.5"/>
</svg>
