<svg preserveAspectRatio="xMinYMin meet" viewBox="0 0 32 32" fill="none" xmlns="http://www.w3.org/2000/svg">
<rect width="32" height="32" fill="none"/>
<rect x="-191" y="-3424" width="4827" height="3613" rx="2" fill="none"/>
<rect x="-190.5" y="-3423.5" width="4826" height="3612" rx="1.5" stroke="currentColor" stroke-opacity="0.1"/>
<rect x="-81.5" y="-143.5" width="263.179" height="257" rx="4.5" stroke="currentColor" stroke-dasharray="10 5"/>
<path d="M13.525 8.83679C14.5738 6.22213 15.0982 4.91479 16 4.91479C16.9018 4.91479 17.4262 6.22213 18.475 8.83679L18.5238 8.95855C19.1163 10.4357 19.4126 11.1743 20.0164 11.6232C20.6202 12.0721 21.4128 12.1431 22.998 12.2851L23.2846 12.3107C25.879 12.5431 27.1762 12.6593 27.4538 13.4846C27.7314 14.3099 26.768 15.1863 24.8413 16.9393L24.1982 17.5243C23.2229 18.4117 22.7352 18.8553 22.5079 19.4368C22.4655 19.5453 22.4303 19.6564 22.4024 19.7695C22.253 20.3757 22.3958 21.0194 22.6814 22.3067L22.7703 22.7074C23.2952 25.0731 23.5577 26.256 23.0994 26.7663C22.9282 26.9569 22.7057 27.0942 22.4584 27.1616C21.7968 27.3422 20.8575 26.5768 18.9789 25.046C17.7454 24.0408 17.1286 23.5382 16.4204 23.4252C16.1419 23.3807 15.8581 23.3807 15.5795 23.4252C14.8714 23.5382 14.2546 24.0408 13.021 25.046C11.1424 26.5768 10.2031 27.3422 9.54154 27.1616C9.29431 27.0942 9.07177 26.9569 8.90053 26.7663C8.44229 26.256 8.70474 25.0731 9.22964 22.7074L9.31854 22.3067C9.60416 21.0194 9.74696 20.3757 9.59756 19.7695C9.56969 19.6564 9.53444 19.5453 9.49204 19.4368C9.26474 18.8553 8.77707 18.4117 7.80173 17.5243L7.15868 16.9393C5.23196 15.1863 4.2686 14.3099 4.54617 13.4846C4.82374 12.6593 6.12095 12.5431 8.71537 12.3107L9.00195 12.2851C10.5872 12.1431 11.3798 12.0721 11.9836 11.6232C12.5874 11.1743 12.8836 10.4357 13.4762 8.95855L13.525 8.83679Z" stroke="currentColor" stroke-width="2"/>
</svg>
