<svg preserveAspectRatio="xMinYMin meet" viewBox="0 0 32 32" fill="none" xmlns="http://www.w3.org/2000/svg">
<rect width="32" height="32" fill="none"/>
<rect x="-253" y="-3300" width="4827" height="3613" rx="2" fill="none"/>
<rect x="-252.5" y="-3299.5" width="4826" height="3612" rx="1.5" stroke="currentColor" stroke-opacity="0.1"/>
<rect x="-143.5" y="-19.5" width="263.179" height="257" rx="4.5" stroke="currentColor" stroke-dasharray="10 5"/>
<path d="M21.296 22.4107L21.0578 21.0649C22.827 20.6003 24.3858 19.5484 25.4785 18.0816C26.5713 16.6147 27.1332 14.8201 27.072 12.992C27.072 8.56532 23.8418 4.82487 20.0178 4.82487H12.1867C8.32001 4.82487 4.92801 8.65243 4.92801 13.0169C4.91551 15.2727 5.74973 17.4512 7.26579 19.1218L6.25957 20.0462C4.51182 18.1235 3.54883 15.6152 3.5609 13.0169C3.5609 7.83465 7.50935 3.45776 12.1867 3.45776H20.0178C24.5813 3.45776 28.4373 7.82399 28.4373 12.992C28.5156 15.1446 27.8474 17.2581 26.546 18.9746C25.2446 20.691 23.3899 21.9049 21.296 22.4107Z" fill="currentColor" stroke="currentColor" stroke-width="0.5"/>
<path d="M10.4125 28.5422C10.2316 28.5417 10.0582 28.4697 9.93026 28.3417C9.80234 28.2138 9.73027 28.0404 9.7298 27.8595V21.8595H11.0969V26.3893L17.1111 21.3191L17.9911 22.3626L10.8534 28.3804C10.7298 28.484 10.5737 28.5425 10.4125 28.5422Z" fill="currentColor" stroke="currentColor" stroke-width="0.5"/>
</svg>
