<svg preserveAspectRatio="xMinYMin meet" viewBox="0 0 32 32" fill="none" xmlns="http://www.w3.org/2000/svg">
<rect width="32" height="32" fill="none"/>
<rect x="-253" y="-3362" width="4827" height="3613" rx="2" fill="none"/>
<rect x="-252.5" y="-3361.5" width="4826" height="3612" rx="1.5" stroke="currentColor" stroke-opacity="0.1"/>
<rect x="-143.5" y="-81.5" width="263.179" height="257" rx="4.5" stroke="currentColor" stroke-dasharray="10 5"/>
<path d="M8.09956 25.9519L7.29956 30.2257M17.0507 25.9519L17.8489 30.2257M12.5742 14.5635C12.1065 14.5583 11.6599 14.3679 11.3323 14.034C11.0047 13.7001 10.8229 13.2499 10.8267 12.7821C10.8267 11.7972 11.6089 11.0008 12.576 11.0008C13.5431 11.0008 14.3253 11.7972 14.3253 12.7821M13.0969 12.7768H30.0089M30.2222 9.81323L27.3067 12.7643M27.2889 9.81323L24.3733 12.7643M30.2222 15.751L27.3067 12.7999M27.2889 15.751L24.3733 12.7999" stroke="currentColor" stroke-width="1.5" stroke-linejoin="round"/>
<path d="M23.3724 12.7787C23.3724 6.70405 18.5387 1.77783 12.576 1.77783C6.61333 1.77783 1.77777 6.70228 1.77777 12.7787C1.77777 18.8552 6.61155 23.7832 12.576 23.7832C17.648 23.7832 21.8969 20.2134 23.0542 15.4045" stroke="currentColor" stroke-width="1.5" stroke-linejoin="round"/>
<path d="M18.2916 15.4043C17.3067 17.6266 15.1253 19.1821 12.5742 19.1821C9.10401 19.1821 6.29156 16.3163 6.29156 12.7803C6.29156 9.24256 9.10401 6.375 12.5742 6.375C16.0462 6.375 18.8605 9.24256 18.8605 12.7803" stroke="currentColor" stroke-width="1.5" stroke-linejoin="round"/>
</svg>
