<svg preserveAspectRatio="xMinYMin meet" viewBox="0 0 32 32" fill="none" xmlns="http://www.w3.org/2000/svg">
<rect width="32" height="32" fill="none"/>
<rect x="-129" y="-3424" width="4827" height="3613" rx="2" fill="none"/>
<rect x="-128.5" y="-3423.5" width="4826" height="3612" rx="1.5" stroke="currentColor" stroke-opacity="0.1"/>
<rect x="-19.5" y="-143.5" width="263.179" height="257" rx="4.5" stroke="currentColor" stroke-dasharray="10 5"/>
<path fill-rule="evenodd" clip-rule="evenodd" d="M18.4285 22.6312H13.5396L12.4356 25.5254H19.5325L18.4285 22.6312ZM11.3814 28.2845L11.9769 26.7254H19.9894L20.5849 28.2863L21.7049 27.8596L19.7138 22.6312H20.2951C23.0436 22.6312 24.8889 21.0685 24.8889 18.7449V18.688L23.8934 7.93072C23.8804 7.34849 23.7499 6.7749 23.5096 6.24442C23.2693 5.71393 22.9242 5.23751 22.4951 4.84378C22.066 4.45005 21.5618 4.14714 21.0126 3.95327C20.4635 3.75939 19.8808 3.67855 19.2996 3.7156H12.704C12.1272 3.67712 11.5485 3.7552 11.0025 3.94517C10.4565 4.13514 9.95435 4.43313 9.52598 4.82135C9.09761 5.20957 8.7518 5.68008 8.50919 6.20482C8.26657 6.72956 8.1321 7.29778 8.11381 7.8756L7.11115 18.7449C7.11115 21.0667 8.96003 22.6312 11.7049 22.6312H12.256L10.2596 27.8578L11.3814 28.2845ZM12.7023 4.9156C11.9397 4.8472 11.1786 5.06209 10.5644 5.51922C9.95018 5.97635 9.52587 6.6437 9.37248 7.39383C10.3165 7.00805 11.5769 6.85516 12.6365 6.85516H19.3654C20.4267 6.85516 21.6836 7.00805 22.6276 7.39383C22.5172 6.85929 22.2685 6.36306 21.9063 5.95471C21.5441 5.54636 21.0811 5.24017 20.5636 5.06671C20.1565 4.92992 19.7256 4.87848 19.2978 4.9156H12.7023ZM12.6365 8.05338C11.4331 7.9143 10.22 8.21552 9.22137 8.90138L8.74137 14.0978C9.80803 14.8854 11.1254 15.2534 12.4445 15.1289H19.5431C20.8663 15.2533 22.1889 14.8862 23.2587 14.0978L22.7787 8.90138C21.7822 8.21233 20.5685 7.91079 19.3654 8.05338H12.6365ZM23.3867 15.4934L23.6889 18.768C23.6729 20.7289 21.9289 21.4294 20.2951 21.4294H11.7049C10.064 21.4294 8.31114 20.7236 8.30937 18.7983L8.61337 15.4934C9.57159 16.0196 11.0383 16.3289 12.4445 16.3289H19.5431C20.9547 16.3289 22.4267 16.0178 23.3867 15.4934ZM8.73781 14.1512H8.7467C8.7467 14.1369 8.7467 14.1209 8.74137 14.1067L8.73781 14.1512ZM12.6063 18.7272C12.6082 18.8837 12.5794 19.0391 12.5213 19.1845C12.4632 19.3298 12.3771 19.4624 12.2678 19.5745C12.1585 19.6865 12.0282 19.776 11.8844 19.8378C11.7405 19.8995 11.5859 19.9323 11.4294 19.9343C11.2728 19.9363 11.1174 19.9074 10.9721 19.8493C10.8267 19.7912 10.6942 19.7051 10.5821 19.5958C10.47 19.4865 10.3805 19.3563 10.3188 19.2124C10.257 19.0685 10.2242 18.9139 10.2223 18.7574C10.2182 18.4412 10.34 18.1365 10.5607 17.9101C10.7814 17.6837 11.083 17.5543 11.3991 17.5503C11.7153 17.5463 12.0201 17.668 12.2464 17.8887C12.4728 18.1094 12.6022 18.411 12.6063 18.7272ZM21.5254 19.3938C21.6984 19.1286 21.759 18.8055 21.6938 18.4956C21.6286 18.1857 21.443 17.9144 21.1778 17.7414C20.9126 17.5683 20.5895 17.5077 20.2796 17.5729C19.9697 17.6381 19.6984 17.8237 19.5254 18.0889C19.4397 18.2203 19.3807 18.3672 19.3518 18.5213C19.3229 18.6754 19.3246 18.8337 19.3569 18.9871C19.3892 19.1406 19.4514 19.2862 19.5399 19.4156C19.6284 19.545 19.7416 19.6557 19.8729 19.7414C20.1381 19.9144 20.4612 19.975 20.7711 19.9098C21.081 19.8447 21.3523 19.659 21.5254 19.3938ZM14.5565 5.29605H17.4471V6.49605H14.5583V5.29783L14.5565 5.29605Z" fill="currentColor"/>
<path d="M13.5414 22.6312V22.1868H13.2356L13.1254 22.4712L13.5414 22.6312ZM18.4285 22.6312L18.8427 22.4712L18.7342 22.1868H18.4285V22.6312ZM12.4356 25.5254L12.0196 25.3672L11.7885 25.9716H12.4356V25.5272V25.5254ZM19.5325 25.5254V25.9699H20.1778L19.9467 25.3672L19.5325 25.5272V25.5254ZM11.9769 26.7254V26.281H11.6711L11.5609 26.5672L11.9769 26.7272V26.7254ZM11.3814 28.2863L11.2214 28.7005L11.6374 28.8605L11.7974 28.4445L11.3814 28.2845V28.2863ZM19.9894 26.7254L20.4054 26.5672L20.2951 26.2828H19.9894V26.7272V26.7254ZM20.5849 28.2863L20.1689 28.4463L20.3289 28.8605L20.7431 28.7005L20.5831 28.2863H20.5849ZM21.7049 27.8596L21.8649 28.2739L22.2791 28.1156L22.1209 27.7014L21.7049 27.8596ZM19.7138 22.6312V22.1868H19.0667L19.2978 22.7894L19.712 22.6294L19.7138 22.6312ZM24.8889 18.745H25.3334V18.7254L24.8889 18.745ZM24.8889 18.6881L25.3334 18.6703L25.3316 18.6472L24.8871 18.6881H24.8889ZM23.8934 7.93076L23.4489 7.93965V7.97165L23.8934 7.93076ZM19.2996 3.71565V4.16009H19.328L19.2996 3.71565ZM12.704 3.71565L12.6756 4.16009H12.704V3.71565ZM8.1138 7.87565L8.55824 7.91476V7.88987L8.1138 7.87565ZM7.11113 18.745L6.66846 18.7041V18.7432L7.11113 18.745ZM12.256 22.6312L12.672 22.7912L12.9031 22.1868H12.256V22.6312ZM10.2596 27.8579L9.84535 27.6979L9.68535 28.1139L10.1014 28.2739L10.2596 27.8579ZM12.7022 4.91565L12.6631 5.35831H12.7022V4.91387V4.91565ZM9.37246 7.39565L8.93691 7.30676L8.7698 8.12098L9.53958 7.80631L9.37246 7.39565ZM22.6276 7.39387L22.4587 7.80454L23.232 8.12098L23.0631 7.3032L22.6276 7.39387ZM21.664 5.71031L21.3654 6.04098L21.664 5.71209V5.71031ZM19.2978 4.91565V5.36009H19.3351L19.2978 4.91565ZM9.22135 8.9032L8.96891 8.53698L8.79824 8.65431L8.77869 8.86231L9.22135 8.9032ZM12.6347 8.0552L12.5849 8.49609L12.6098 8.49965H12.6365L12.6347 8.0552ZM8.74135 14.0996L8.30046 14.0588L8.27735 14.3076L8.47824 14.457L8.74135 14.0996ZM12.4445 15.129V14.6845H12.4036L12.4445 15.129ZM19.5431 15.129L19.584 14.6845H19.5431V15.129ZM23.2587 14.0979L23.52 14.4534L23.7227 14.3059L23.6996 14.057L23.2569 14.0979H23.2587ZM22.7787 8.90142L23.2196 8.86054L23.2018 8.65254L23.0294 8.5352L22.7787 8.90142ZM19.3654 8.05343V8.49787H19.3902L19.4169 8.49431L19.3654 8.05343ZM23.6889 18.7681L24.1334 18.7716V18.7503L24.1316 18.7272L23.6889 18.7681ZM23.3867 15.4934L23.8294 15.4525L23.7671 14.777L23.1734 15.1023L23.3867 15.4934ZM8.30935 18.7983L7.86669 18.7574L7.86491 18.777V18.7983H8.30935ZM8.61335 15.4934L8.82669 15.1041L8.23291 14.7788L8.17069 15.4543L8.61513 15.4934H8.61335ZM8.74669 14.1512V14.5956H9.17158L9.18935 14.1725L8.74669 14.1512ZM8.7378 14.1512L8.29335 14.1103L8.25069 14.5956H8.7378V14.1512ZM8.74135 14.1068L9.16802 13.9841L8.29869 14.0659L8.74135 14.1068ZM11.4134 17.5485V17.993H11.4169L11.4134 17.5485ZM20.5262 17.5485V17.993H20.5298L20.5262 17.5485ZM17.4471 5.29787H17.8916V4.85342H17.4471V5.29787ZM14.5582 5.29787V4.85342H14.1138V5.29787H14.5582ZM17.4471 6.49609V6.94054H17.8916V6.49609H17.4471ZM14.5582 6.49609H14.1138V6.94054H14.5582V6.49609ZM13.5414 23.0739H18.4285V22.1868L13.5396 22.185L13.5414 23.0739ZM12.8498 25.6819L13.9556 22.7876L13.1254 22.4712L12.0196 25.3654L12.8498 25.6819ZM19.5325 25.0792H12.4356V25.9681L19.5325 25.9699V25.0792ZM18.0125 22.7859L19.1165 25.6836L19.9467 25.3654L18.8445 22.4712L18.0125 22.7859ZM11.5609 26.5654L10.9654 28.1263L11.7956 28.4428L12.3911 26.8836L11.5609 26.5654ZM19.9894 26.281H11.9769V27.1699H19.9894V26.281ZM20.9991 28.1263L20.4054 26.5654L19.5751 26.8819L20.1689 28.4428L20.9991 28.1263ZM21.5467 27.4419L20.4267 27.8685L20.7431 28.7005L21.8649 28.2739L21.5467 27.4419ZM19.2978 22.7876L21.2889 28.0143L22.1209 27.6979L20.128 22.4712L19.2978 22.7876ZM20.2951 22.1832H19.712V23.0721H20.2951V22.1832ZM24.4445 18.7432C24.4445 19.7779 24.0374 20.6241 23.3351 21.2179C22.6276 21.817 21.5876 22.185 20.2951 22.185V23.0739C21.7511 23.0739 23.008 22.6596 23.9094 21.897C24.816 21.129 25.3334 20.0321 25.3334 18.745L24.4445 18.7432ZM24.4427 18.7076L24.4445 18.761L25.3334 18.7236L25.3298 18.6668L24.4427 18.7076ZM23.4471 7.96987L24.4427 18.729L25.3298 18.6454L24.3342 7.88809L23.4471 7.96987ZM23.1022 6.42498C23.3174 6.90143 23.4347 7.4152 23.4454 7.93787L24.3342 7.92009C24.3202 7.27746 24.1763 6.64431 23.9111 6.05876L23.1022 6.42498ZM22.192 5.16987C22.5778 5.52187 22.8854 5.95031 23.1022 6.42498L23.9111 6.05876C23.6464 5.47367 23.266 4.94817 22.7929 4.51387L22.192 5.16987ZM20.8622 4.36987C21.3547 4.54409 21.808 4.81431 22.192 5.16987L22.7929 4.51387C22.3195 4.07978 21.7632 3.74597 21.1574 3.53254L20.8622 4.36987ZM19.3262 4.15654C19.8474 4.12344 20.3698 4.196 20.8622 4.36987L21.1591 3.53254C20.5531 3.31944 19.9105 3.22998 19.2694 3.26942L19.3262 4.15654ZM12.7022 4.15654H19.2978V3.26765H12.7022V4.15654ZM11.1485 4.36276C11.6374 4.19209 12.1565 4.12276 12.6738 4.15654L12.7325 3.26942C12.096 3.22725 11.4575 3.31371 10.8551 3.52365L11.1485 4.36276ZM9.82402 5.14854C10.208 4.80009 10.6596 4.53342 11.1485 4.36276L10.8551 3.52365C10.2525 3.73342 9.69958 4.06231 9.22669 4.49076L9.82402 5.14854ZM8.91202 6.38943C9.12891 5.91831 9.44002 5.49698 9.82402 5.14854L9.22669 4.49076C8.75375 4.91838 8.37218 5.43722 8.10491 6.01609L8.91202 6.38943ZM8.55647 7.88809C8.57424 7.36898 8.69335 6.86054 8.91202 6.38943L8.10491 6.01609C7.83824 6.59565 7.68891 7.22142 7.66758 7.85965L8.55647 7.88809ZM7.5538 18.7823L8.55469 7.91298L7.66935 7.83298L6.66846 18.7041L7.5538 18.7823ZM11.7049 22.185C10.4125 22.185 9.37424 21.817 8.66491 21.2179C7.96269 20.6241 7.55558 19.7779 7.55558 18.7414H6.66669C6.66669 20.0321 7.18224 21.129 8.09069 21.897C8.99202 22.6596 10.2489 23.0739 11.7049 23.0739V22.185ZM12.256 22.1868L11.7049 22.185V23.0739H12.256V22.1868ZM10.6738 28.0161L12.672 22.7912L11.8418 22.4694L9.84535 27.6979L10.6738 28.0161ZM11.5396 27.8685L10.4196 27.4419L10.0996 28.2721L11.2214 28.7005L11.5396 27.8685ZM11.5876 5.4792C11.9342 5.36542 12.2987 5.32454 12.6631 5.35476L12.7431 4.4712C12.2593 4.42737 11.7717 4.4848 11.3102 4.63654L11.5876 5.4792ZM10.6507 6.01965C10.9227 5.77787 11.2409 5.59298 11.5876 5.4792L11.3102 4.63654C10.848 4.78942 10.4214 5.03298 10.0587 5.35476L10.6507 6.01965ZM10.0036 6.8872C10.1582 6.55654 10.3769 6.26142 10.6507 6.01965L10.0587 5.35476C9.69583 5.67771 9.40299 6.07336 9.19824 6.51387L10.0036 6.8872ZM9.80802 7.48098C9.84921 7.27594 9.91487 7.07659 10.0036 6.8872L9.19824 6.51387C9.08046 6.76643 8.99275 7.03373 8.93691 7.30676L9.80802 7.48098ZM12.6347 6.40898C11.5467 6.40898 10.224 6.56542 9.20358 6.98143L9.54135 7.80454C10.4125 7.44898 11.6054 7.29787 12.6347 7.29787V6.40898ZM19.3654 6.40898H12.6347V7.29787H19.3654V6.40898ZM22.7965 6.98143C21.7778 6.56542 20.4569 6.40898 19.3654 6.40898V7.29787C20.3965 7.29787 21.5894 7.45076 22.4587 7.80454L22.7965 6.98143ZM22.0107 6.92454C22.0907 7.10409 22.1529 7.29076 22.192 7.48276L23.0631 7.3032C23.0095 7.04672 22.9279 6.79514 22.8196 6.55654L22.0107 6.92454ZM21.3654 6.04098C21.6391 6.28987 21.8578 6.58854 22.0107 6.92454L22.8196 6.55654C22.6172 6.10944 22.3249 5.70882 21.9609 5.37965L21.3654 6.04098ZM20.4231 5.48809C20.7716 5.60365 21.0916 5.79387 21.3654 6.04098L21.9609 5.37965C21.5976 5.0502 21.1704 4.80084 20.7058 4.64365L20.4214 5.48631L20.4231 5.48809ZM19.3351 5.35654C19.7031 5.32454 20.0729 5.36898 20.4214 5.48631L20.7058 4.64365C20.241 4.48756 19.749 4.42886 19.2605 4.4712L19.3351 5.35654ZM12.704 5.35654L19.2978 5.35831V4.46942H12.7022V5.35831L12.704 5.35654ZM9.47202 9.26765C10.3822 8.6423 11.4879 8.36937 12.5849 8.49609L12.6862 7.61254C11.376 7.45965 10.0551 7.79031 8.97069 8.5352L9.47202 9.26765ZM9.18402 14.1388L9.66402 8.94231L8.77869 8.86231L8.29869 14.057L9.18402 14.1388ZM12.4018 14.6863C11.1921 14.8003 9.98286 14.4635 9.00624 13.7405L8.47824 14.4552C9.63024 15.3085 11.0578 15.705 12.4871 15.5716L12.4036 14.6845L12.4018 14.6863ZM19.5431 14.6845H12.4445V15.5734H19.5431V14.6845ZM22.992 13.7388C22.0109 14.4623 20.7978 14.7978 19.584 14.6845L19.5022 15.5716C20.9331 15.7053 22.3632 15.3061 23.52 14.4534L22.9938 13.7388H22.992ZM22.3342 8.94231L22.8142 14.1388L23.6996 14.057L23.2196 8.86054L22.3342 8.94231ZM19.4187 8.49431C20.5133 8.36489 21.6176 8.63923 22.5245 9.26587L23.0294 8.5352C21.9447 7.78502 20.6236 7.4581 19.3138 7.61254L19.4169 8.49431H19.4187ZM12.6365 8.49965L19.3654 8.49787V7.60898H12.6365V8.49965ZM24.1316 18.7272L23.8294 15.4525L22.944 15.5343L23.2462 18.809L24.1316 18.7272ZM20.2951 21.8739C21.1662 21.8739 22.1031 21.689 22.8427 21.2054C23.6018 20.7076 24.1227 19.9076 24.1334 18.7716L23.2445 18.7645C23.2374 19.5894 22.88 20.1192 22.3556 20.4623C21.8098 20.8179 21.0578 20.985 20.2951 20.985V21.8739ZM11.7049 21.8739H20.2951V20.985H11.7049V21.8739ZM7.86491 18.7983C7.86491 19.9219 8.39113 20.7148 9.15024 21.209C9.8898 21.6872 10.832 21.8739 11.7049 21.8739V20.985C10.9387 20.985 10.1831 20.8179 9.6338 20.4623C9.10758 20.121 8.75558 19.5983 8.7538 18.7965L7.86491 18.7983ZM8.17069 15.4543L7.86669 18.7574L8.75202 18.8392L9.05602 15.5343L8.17069 15.4543ZM12.4445 15.8863C11.0862 15.8863 9.69958 15.5823 8.82669 15.1041L8.40002 15.8845C9.4418 16.457 10.9885 16.7734 12.4445 16.7734V15.8863ZM19.5431 15.8863H12.4445V16.7734L19.5431 16.7752V15.8863ZM23.1734 15.1041C22.2969 15.5841 20.9049 15.8863 19.5431 15.8863V16.7752C21.0045 16.7752 22.5547 16.4552 23.6 15.8845L23.1734 15.1041ZM8.74669 13.7085H8.7378V14.5974H8.74669V13.7085ZM8.31469 14.2312C8.30531 14.1995 8.30111 14.1665 8.30224 14.1334L9.19113 14.1743C9.19381 14.1107 9.186 14.0452 9.16802 13.9841L8.31469 14.2312ZM9.18046 14.1939L9.18402 14.1494L8.29869 14.0659L8.29513 14.1121L9.18046 14.1939ZM12.7858 19.6392C12.9637 19.3673 13.0565 19.0485 13.0525 18.7236L12.1636 18.7343C12.1645 18.8828 12.1211 19.0265 12.0391 19.1503L12.7858 19.6392ZM12.0551 20.249C12.3536 20.1214 12.6073 19.9097 12.784 19.6374L12.0409 19.1521C11.9599 19.2769 11.8435 19.3746 11.7067 19.433L12.0551 20.249ZM11.1076 20.3521C11.4265 20.4131 11.7563 20.3761 12.0551 20.249L11.7067 19.433C11.5704 19.4907 11.4201 19.5067 11.2747 19.4792L11.1076 20.3503V20.3521ZM10.2631 19.9076C10.4942 20.1364 10.7882 20.2912 11.1076 20.3521L11.2747 19.4792C11.1288 19.4515 10.9945 19.3809 10.8889 19.2765L10.2631 19.9076ZM9.8098 19.0721C9.87485 19.3893 10.0326 19.6802 10.2631 19.9076L10.8889 19.2765C10.7829 19.1721 10.7104 19.0384 10.6809 18.8925L9.8098 19.0721ZM9.89869 18.1228C9.77578 18.4228 9.74485 18.7544 9.8098 19.0721L10.6809 18.8925C10.6511 18.7471 10.6653 18.5961 10.7218 18.4588L9.90046 18.121L9.89869 18.1228ZM10.5031 17.3832C10.2326 17.5641 10.0221 17.8216 9.89869 18.1228L10.7218 18.4588C10.7781 18.3213 10.874 18.2055 10.9974 18.1228L10.5031 17.3832ZM11.4134 17.1059C11.0892 17.1061 10.7723 17.2026 10.5031 17.3832L10.9974 18.1228C11.1202 18.0397 11.2651 17.9934 11.4134 17.993V17.1059ZM12.0356 17.225C11.8375 17.1441 11.6273 17.1048 11.4134 17.1059L11.4169 17.993C11.5147 17.993 11.6107 18.0125 11.7014 18.0499L12.0356 17.225ZM12.5671 17.577C12.4147 17.4264 12.2341 17.3056 12.0356 17.225L11.7014 18.0499C11.7902 18.0854 11.872 18.1405 11.9414 18.2099L12.5671 17.577ZM12.9227 18.1032C12.8399 17.9062 12.719 17.7274 12.5671 17.577L11.9414 18.2099C12.0125 18.2774 12.0658 18.3574 12.1049 18.4463L12.9227 18.1032ZM13.0507 18.7254C13.0501 18.5115 13.0066 18.2999 12.9227 18.1032L12.1049 18.4463C12.1405 18.5352 12.1618 18.6348 12.1618 18.7325L13.0507 18.7254ZM21.2747 18.7343C21.2761 18.8827 21.2334 19.0263 21.152 19.1503L21.8969 19.6392C22.0747 19.3672 22.1675 19.0485 22.1636 18.7236L21.2747 18.7343ZM21.216 18.4499C21.2534 18.5395 21.2733 18.6337 21.2747 18.7308L22.1636 18.7254C22.1613 18.5117 22.1178 18.3005 22.0356 18.1032L21.216 18.4481V18.4499ZM21.0542 18.2099C21.1236 18.2774 21.1787 18.3592 21.216 18.4481L22.0338 18.1014C21.951 17.9044 21.8301 17.7274 21.6782 17.577L21.0542 18.2099ZM20.8125 18.0499C20.9014 18.0854 20.9849 18.1405 21.0542 18.2099L21.6782 17.577C21.5263 17.4266 21.3463 17.3076 21.1485 17.2268L20.8125 18.0499ZM20.528 17.9965C20.6258 17.9965 20.7236 18.0143 20.8125 18.0499L21.1485 17.2268C20.9499 17.1457 20.7372 17.1046 20.5227 17.1059L20.528 17.9948V17.9965ZM20.1102 18.121C20.2335 18.0392 20.3783 17.9959 20.5262 17.9965V17.1076C20.2016 17.107 19.8842 17.2029 19.6142 17.3832L20.1102 18.1228V18.121ZM19.8347 18.4588C19.8909 18.3213 19.9868 18.2037 20.1102 18.121L19.6142 17.3832C19.3443 17.5644 19.1345 17.8218 19.0116 18.1228L19.8347 18.4588ZM19.7938 18.8908C19.764 18.7453 19.7782 18.5961 19.8347 18.4588L19.0134 18.121C18.8901 18.4216 18.8574 18.7521 18.9227 19.0703L19.7938 18.8908ZM20 19.2765C19.8948 19.1718 19.823 19.0363 19.7938 18.8908L18.9227 19.0703C18.9874 19.3882 19.1452 19.6797 19.376 19.9076L20 19.2765ZM20.3858 19.4774C20.2399 19.4496 20.1057 19.3809 20 19.2765L19.376 19.9076C19.6071 20.137 19.9005 20.2916 20.2187 20.3521L20.3858 19.4774ZM20.8196 19.4312C20.683 19.49 20.5319 19.505 20.3858 19.4774L20.2187 20.3503C20.5387 20.4125 20.8676 20.3752 21.1662 20.249L20.8196 19.4312ZM21.152 19.1503C21.0716 19.2749 20.9558 19.3727 20.8196 19.4312L21.1662 20.249C21.4653 20.1216 21.7196 19.9099 21.8969 19.6374L21.152 19.1503ZM17.4471 4.85342H14.5582V5.74231H17.4471V4.85342ZM17.8916 6.49609V5.29787H17.0027V6.49787L17.8916 6.49609ZM14.5582 6.94054H17.4471V6.05342H14.5582V6.94054ZM14.1138 5.29787V6.49609L15.0027 6.49787V5.29787H14.1138Z" fill="currentColor"/>
</svg>
